<svg
     xmlns:dc="http://purl.org/dc/elements/1.1/"
     xmlns:cc="http://creativecommons.org/ns#"
     xmlns:rdf="http://www.w3.org/1999/02/22-rdf-syntax-ns#"
     xmlns:svg="http://www.w3.org/2000/svg"
     xmlns="http://www.w3.org/2000/svg"
     version="1.1"
     id="svg4178"
     viewBox="0 0 180 35.000001"
     height="35"
     width="180">
    <defs
         id="defs4180" />
    <metadata
         id="metadata4183">
        <rdf:RDF>
            <cc:Work
                 rdf:about="">
                <dc:format>image/svg+xml</dc:format>
                <dc:type
                     rdf:resource="http://purl.org/dc/dcmitype/StillImage" />
                <dc:title></dc:title>
            </cc:Work>
        </rdf:RDF>
    </metadata>
    <g
         transform="translate(0,-1017.3622)"
         id="layer1">
        <path
             style="fill:#fef5df;fill-opacity:1"
             id="path17"
             d="m 0,1052.3622 34.45565,0 0,-34.9993 -34.45565,0 0,34.9993 z m 5.9215761,-28.9853 22.6124979,0 0,22.9692 -22.6124979,0 0,-22.9692 z m 43.4571609,11.0381 c 0.264356,0 0.511584,-0.097 0.738707,-0.2911 0.227123,-0.1944 0.341057,-0.4096 0.341057,-0.6494 0,-0.1042 -0.03723,-0.2167 -0.109466,-0.3366 l -5.251378,-8.0669 4.5015,-5.7146 c 0.102764,-0.1191 0.153401,-0.2532 0.153401,-0.4043 0,-0.222 -0.116167,-0.4401 -0.352226,-0.6486 -0.233825,-0.21 -0.469884,-0.315 -0.705943,-0.315 -0.233824,0 -0.419991,0.091 -0.548818,0.271 l -5.914129,7.7974 0,-7.4176 c 0,-0.2093 -0.09159,-0.3701 -0.275526,-0.4818 -0.186166,-0.1124 -0.399885,-0.169 -0.651582,-0.169 -0.251697,0 -0.466905,0.057 -0.650093,0.169 -0.184677,0.1124 -0.277015,0.2733 -0.277015,0.4818 l 0,15.0594 c 0,0.21 0.09159,0.373 0.277015,0.4929 0.183188,0.1199 0.399141,0.1787 0.650093,0.1787 0.251697,0 0.465416,-0.059 0.651582,-0.1787 0.183932,-0.1199 0.275526,-0.2829 0.275526,-0.4929 l 0,-4.9536 1.630816,-2.0828 4.832131,7.3722 c 0.161593,0.2554 0.39095,0.3805 0.684348,0.3805 z m 2.756749,-10.6666 c -0.249462,0 -0.463181,0.06 -0.640411,0.1788 -0.174997,0.1199 -0.262123,0.2777 -0.262123,0.4706 l 0,9.3009 c 0,0.1787 0.08713,0.3351 0.262123,0.4706 0.17723,0.134 0.391693,0.201 0.640411,0.201 0.249463,0 0.46765,-0.071 0.651582,-0.2129 0.183933,-0.1408 0.275526,-0.2942 0.275526,-0.4587 l 0,-9.3009 c 0,-0.1929 -0.08713,-0.3507 -0.264356,-0.4706 -0.17723,-0.1184 -0.398395,-0.1788 -0.662752,-0.1788 z m 0,-2.9123 c 0.308292,0 0.572648,-0.1088 0.793813,-0.3255 0.221166,-0.2152 0.329887,-0.4661 0.329887,-0.7506 0,-0.283 -0.109466,-0.5294 -0.329887,-0.7394 -0.221165,-0.2093 -0.485521,-0.3135 -0.793813,-0.3135 -0.321695,0 -0.594242,0.1042 -0.815408,0.3135 -0.221165,0.21 -0.33212,0.4564 -0.33212,0.7394 0,0.2845 0.116167,0.5354 0.34329,0.7506 0.229357,0.2167 0.498181,0.3255 0.804238,0.3255 z m 7.28059,13.535 c 0.233825,0 0.424459,-0.086 0.572648,-0.2562 0.148933,-0.1705 0.221165,-0.3716 0.221165,-0.6061 0,-0.2346 -0.07,-0.4319 -0.212229,-0.5943 -0.137763,-0.1645 -0.332121,-0.2465 -0.581584,-0.2465 l -0.684347,0 c -0.677645,0 -1.150507,-0.1288 -1.423055,-0.3887 -0.273292,-0.2591 -0.406587,-0.7074 -0.406587,-1.3448 l 0,-5.7287 2.77909,0 c 0.159358,0 0.294887,-0.071 0.396162,-0.213 0.102764,-0.1415 0.15489,-0.3098 0.15489,-0.5042 0,-0.1943 -0.05213,-0.3663 -0.15489,-0.5153 -0.10053,-0.1489 -0.236059,-0.2241 -0.396162,-0.2241 l -2.77909,0 0,-4.3027 c 0,-0.1787 -0.09606,-0.3306 -0.28893,-0.4587 -0.189889,-0.1266 -0.404353,-0.1899 -0.640412,-0.1899 -0.218931,0 -0.425948,0.063 -0.616582,0.1899 -0.190635,0.1273 -0.286696,0.28 -0.286696,0.4587 l 0,11.5416 c 0,2.2563 1.219761,3.3837 3.662262,3.3837 l 0.684347,0 z m 9.198102,-1.4111 c 0,-0.21 -0.0767,-0.4111 -0.23159,-0.6055 -0.155635,-0.1943 -0.347759,-0.2919 -0.583818,-0.2919 -0.0767,0 -0.341056,0.1311 -0.796047,0.3932 -0.45499,0.2614 -0.990404,0.3917 -1.609221,0.3917 -1.808046,0 -2.713559,-0.8847 -2.713559,-2.6517 l 0,-2.2273 c 0,-0.8475 0.227123,-1.4998 0.684347,-1.9607 0.457224,-0.4595 1.1237,-0.6896 2.006872,-0.6896 0.600945,0 1.128168,0.1281 1.576456,0.3813 0.448288,0.2539 0.702219,0.3805 0.761048,0.3805 0.205527,0 0.387226,-0.1013 0.539882,-0.3031 0.157124,-0.201 0.233825,-0.4066 0.233825,-0.6151 0,-0.3738 -0.314994,-0.7238 -0.938278,-1.0537 -0.625519,-0.3284 -1.394758,-0.4929 -2.304738,-0.4929 -1.443161,0 -2.534095,0.4028 -3.277271,1.21 -0.743176,0.8065 -1.113274,1.852 -1.113274,3.1366 l 0,2.2399 c 0,1.3009 0.369354,2.3509 1.113274,3.1499 0.743176,0.7998 1.840812,1.1982 3.298866,1.1982 0.940512,0 1.735814,-0.1713 2.380694,-0.5153 0.649348,-0.3418 0.972532,-0.7022 0.972532,-1.0745 z m 5.978171,-9.3456 c -0.675411,0 -1.259228,0.1668 -1.753686,0.4997 -0.492224,0.3328 -0.863811,0.7417 -1.11253,1.2257 l 0,-7.3275 c 0,-0.1929 -0.08713,-0.35 -0.264356,-0.4699 -0.17723,-0.1199 -0.399885,-0.1802 -0.662751,-0.1802 -0.266591,0 -0.481054,0.06 -0.649348,0.1802 -0.168295,0.1199 -0.25542,0.2755 -0.25542,0.4699 l 0,15.6879 c 0,0.1787 0.08713,0.3365 0.264356,0.4698 0.179464,0.1341 0.389459,0.2011 0.640412,0.2011 0.249462,0 0.465415,-0.071 0.651581,-0.2122 0.183933,-0.1423 0.275526,-0.2942 0.275526,-0.4573 l 0,-5.7689 c 0,-0.7737 0.242761,-1.4044 0.728283,-1.8885 0.485521,-0.484 1.043276,-0.726 1.674751,-0.726 0.677646,0 1.265931,0.2673 1.764112,0.805 0.500415,0.5354 0.749878,1.1401 0.749878,1.8095 l 0,5.7689 c 0,0.2085 0.09159,0.3724 0.27776,0.4908 0.183932,0.1199 0.393927,0.1787 0.629986,0.1787 0.249463,0 0.46616,-0.059 0.649348,-0.1787 0.183932,-0.1199 0.275526,-0.283 0.275526,-0.493 l 0,-5.7831 c 0,-1.1788 -0.387226,-2.1908 -1.158699,-3.036 -0.769983,-0.8429 -1.679964,-1.2659 -2.724729,-1.2659 z m 9.838514,0 c -1.207102,0 -2.239208,0.4185 -3.10004,1.2548 -0.859344,0.837 -1.287526,1.8296 -1.287526,2.9801 l 0,2.3517 c 0,1.3009 0.45499,2.3509 1.36646,3.1499 0.91147,0.7998 2.088041,1.1982 3.528968,1.1982 0.985936,0 1.812514,-0.1788 2.484202,-0.5377 0.66722,-0.3574 1.003809,-0.7082 1.003809,-1.0529 0,-0.1944 -0.0767,-0.3843 -0.221166,-0.5704 -0.148933,-0.1877 -0.323929,-0.2823 -0.531691,-0.2823 -0.131061,0 -0.308291,0.072 -0.529457,0.2145 -0.221165,0.1422 -0.50935,0.2874 -0.870513,0.4364 -0.360418,0.1496 -0.782643,0.2241 -1.268164,0.2241 -0.927108,0 -1.681454,-0.2465 -2.263037,-0.7394 -0.57935,-0.4938 -0.869769,-1.1506 -0.869769,-1.9734 l 0,-0.6717 4.829897,0 c 0.310525,0 0.55552,-0.016 0.740942,-0.045 0.183932,-0.03 0.380524,-0.102 0.594987,-0.2152 0.21223,-0.1132 0.371588,-0.3024 0.474352,-0.5675 0.102764,-0.2643 0.153401,-0.6151 0.153401,-1.0537 0,-1.1736 -0.417757,-2.1498 -1.256995,-2.9302 -0.838493,-0.7789 -1.831131,-1.1699 -2.97866,-1.1699 z m 2.295802,4.5596 c -0.133295,0.098 -0.391693,0.1467 -0.773707,0.1467 l -4.080019,0 0,-0.8072 c 0,-0.6874 0.249463,-1.266 0.749878,-1.7366 0.500414,-0.4706 1.095402,-0.7052 1.786451,-0.7052 0.705942,0 1.30093,0.2539 1.788685,0.7618 0.485522,0.5079 0.726049,1.0969 0.726049,1.7708 -7.45e-4,0.2815 -0.06628,0.4729 -0.197337,0.5697 z m 11.998788,-0.2577 c 0,-1.1788 -0.384992,-2.1908 -1.158699,-3.036 -0.771473,-0.8429 -1.67922,-1.2659 -2.723985,-1.2659 -0.691049,0 -1.296461,0.1668 -1.819216,0.4997 -0.522755,0.3328 -0.901045,0.7417 -1.13487,1.2257 l 0,-0.9316 c 0,-0.1824 -0.08489,-0.3373 -0.253186,-0.4661 -0.168294,-0.1289 -0.364886,-0.1929 -0.586051,-0.1929 -0.264356,0 -0.481054,0.06 -0.649348,0.1787 -0.170528,0.1199 -0.253931,0.2778 -0.253931,0.4706 l 0,9.3009 c 0,0.1787 0.08787,0.3351 0.264356,0.4706 0.17723,0.1341 0.387226,0.2011 0.638178,0.2011 0.236059,0 0.448288,-0.071 0.638178,-0.2122 0.192124,-0.1423 0.28893,-0.2942 0.28893,-0.4573 l 0,-5.7689 c 0,-0.7737 0.242761,-1.4044 0.728282,-1.8885 0.485522,-0.484 1.04551,-0.726 1.676986,-0.726 0.675411,0 1.263697,0.2673 1.764856,0.805 0.500415,0.5354 0.749878,1.1401 0.749878,1.8095 l 0,5.7689 c 0,0.2085 0.09159,0.3724 0.275526,0.4908 0.186166,0.1199 0.393183,0.1787 0.627752,0.1787 0.251697,0 0.46765,-0.059 0.651582,-0.1787 0.183933,-0.1199 0.275526,-0.283 0.275526,-0.493 l 0,-5.7831 z m 13.237907,-2.4186 c 0.58605,-0.2532 1.047,-0.697 1.37763,-1.3322 0.32989,-0.636 0.49446,-1.4156 0.49446,-2.3428 0,-1.4476 -0.39765,-2.4484 -1.2004,-3.001 -0.80275,-0.5532 -1.89368,-0.8303 -3.27727,-0.8303 l -3.79481,0 c -0.22042,0 -0.41627,0.063 -0.58457,0.1803 -0.16978,0.1206 -0.25393,0.2844 -0.25393,0.4952 l 0,15.0586 c 0,0.1787 0.0767,0.3306 0.23308,0.4594 0.15489,0.1244 0.3567,0.1907 0.60542,0.1907 l 4.30193,0 c 1.32476,0 2.38144,-0.3739 3.17674,-1.123 0.79381,-0.7469 1.1937,-1.9264 1.1937,-3.5401 l 0,-0.4044 c 0,-1.0745 -0.19213,-1.9033 -0.57712,-2.4887 -0.38052,-0.5808 -0.94647,-1.0209 -1.69486,-1.3217 z m -5.38467,-5.804 2.68899,0 c 1.81251,0 2.71579,0.7998 2.71579,2.3971 0,0.913 -0.21223,1.5787 -0.63818,1.9957 -0.42893,0.4178 -1.09764,0.6285 -2.00911,0.6285 l -2.75675,0 0,-5.0213 z m 5.80243,9.9048 c 0,2.0464 -0.942,3.071 -2.82526,3.071 l -2.97791,0 0,-6.3877 2.97791,0 c 0.92711,0 1.62858,0.2331 2.1074,0.6948 0.47659,0.4617 0.71711,1.2101 0.71711,2.2399 l 0,0.382 z m 11.27125,-5.8463 c -0.24946,0 -0.46542,0.065 -0.64935,0.1988 -0.18393,0.1355 -0.27552,0.2845 -0.27552,0.4475 l 0,5.8352 c 0,0.6866 -0.24947,1.2928 -0.74988,1.8207 -0.50042,0.5302 -1.0887,0.7953 -1.76411,0.7953 -0.69329,0 -1.28976,-0.2695 -1.78869,-0.8072 -0.49818,-0.5361 -0.74988,-1.1378 -0.74988,-1.8088 l 0,-5.8121 c 0,-0.1631 -0.0923,-0.3172 -0.27552,-0.4594 -0.18394,-0.14 -0.39393,-0.21 -0.62776,-0.21 -0.25169,0 -0.46765,0.065 -0.65381,0.1995 -0.18393,0.1341 -0.27553,0.2912 -0.27553,0.4692 l 0,5.8277 c 0,1.1505 0.43116,2.1558 1.292,3.0152 0.86157,0.8571 1.88474,1.2905 3.07844,1.2905 1.17434,0 2.19304,-0.4334 3.05462,-1.2905 0.85934,-0.8594 1.28976,-1.8647 1.28976,-3.0152 l 0,-5.8486 c 0,-0.1809 -0.0856,-0.3328 -0.25393,-0.4594 -0.16755,-0.1266 -0.38425,-0.1884 -0.65084,-0.1884 z m 10.23616,-6.3893 c -0.26435,0 -0.48552,0.062 -0.66275,0.1803 -0.17723,0.1213 -0.26435,0.2785 -0.26435,0.4706 l 0,7.329 c -0.26436,-0.4833 -0.64712,-0.8929 -1.14753,-1.2257 -0.49818,-0.3329 -1.07977,-0.5012 -1.74252,-0.5012 -1.07381,0 -1.99868,0.423 -2.77909,1.2667 -0.77817,0.8452 -1.16987,1.8542 -1.16987,3.036 l 0,2.2839 c 0,1.1363 0.3917,2.1446 1.16987,3.0263 0.78041,0.8846 1.68369,1.3255 2.71282,1.3255 0.66051,0 1.27263,-0.1758 1.82964,-0.5228 0.56222,-0.3507 0.96434,-0.764 1.2138,-1.2503 l 0,0.9115 c 0,0.1787 0.0856,0.3388 0.25617,0.4751 0.16829,0.1363 0.36265,0.2063 0.58381,0.2063 0.2517,0 0.4617,-0.07 0.63818,-0.2018 0.17723,-0.1363 0.26659,-0.2934 0.26659,-0.4721 l 0,-15.6864 c 0,-0.1944 -0.0871,-0.35 -0.25616,-0.4706 -0.16755,-0.1184 -0.38127,-0.1803 -0.64861,-0.1803 z m -0.9271,13.436 c 0,0.3709 -0.25766,0.805 -0.77148,1.3025 -0.51382,0.4989 -1.0954,0.7483 -1.74251,0.7483 -0.66275,0 -1.24434,-0.2732 -1.74252,-0.8146 -0.50041,-0.5421 -0.75211,-1.1535 -0.75211,-1.8356 l 0,-2.2727 c 0,-0.671 0.2517,-1.2704 0.75211,-1.8044 0.49818,-0.5339 1.0887,-0.8027 1.76635,-0.8027 0.65828,0 1.23986,0.2413 1.74028,0.7253 0.50041,0.4833 0.74988,1.1081 0.74988,1.8825 l 0,2.8714 z m 7.06017,-7.1837 c -0.75212,0 -1.46253,0.1318 -2.12975,0.3931 -0.66871,0.2607 -1.00381,0.5637 -1.00381,0.9085 0,0.2219 0.0633,0.4364 0.18841,0.6375 0.12435,0.201 0.29116,0.3023 0.49445,0.3023 0.0462,0 0.30159,-0.1132 0.77371,-0.3351 0.46988,-0.2256 1.01423,-0.3366 1.63082,-0.3366 0.8087,0 1.41709,0.2785 1.82145,0.8363 0.40435,0.5577 0.60541,1.21 0.60541,1.9599 l 0,0.4766 -1.05594,0 c -1.67698,0 -2.95855,0.2294 -3.83949,0.6896 -0.88541,0.4572 -1.32476,1.2748 -1.32476,2.4492 0,0.9628 0.27776,1.6993 0.82658,2.2019 0.55329,0.502 1.26817,0.7566 2.15134,0.7566 1.21976,0 2.3308,-0.5696 3.33237,-1.709 l 0,0.8743 c 0,0.1876 0.0789,0.3432 0.24276,0.4684 0.1616,0.1243 0.36042,0.1869 0.59425,0.1869 0.26435,0 0.48105,-0.066 0.65158,-0.1907 0.17053,-0.1288 0.25393,-0.2889 0.25393,-0.4833 l 0,-5.7376 c 0,-1.2391 -0.34329,-2.2742 -1.0254,-3.1038 -0.68435,-0.828 -1.74922,-1.245 -3.18791,-1.245 z m 2.38143,7.1644 c 0,0.5294 -0.28893,1.0485 -0.87051,1.5541 -0.58158,0.5079 -1.18104,0.761 -1.79762,0.761 -0.51605,0 -0.92711,-0.1444 -1.23763,-0.4334 -0.3083,-0.2859 -0.46319,-0.7096 -0.46319,-1.2704 0,-0.3172 0.0678,-0.5853 0.19883,-0.8072 0.13329,-0.2174 0.30606,-0.3917 0.51829,-0.5197 0.21446,-0.1289 0.48775,-0.2287 0.81764,-0.2949 0.32989,-0.07 0.65158,-0.1125 0.95987,-0.1356 0.30829,-0.023 0.67541,-0.036 1.10211,-0.036 l 0.77147,0 0,1.1818 z m 8.51599,-7.1644 c -0.67764,0 -1.27263,0.1675 -1.78645,0.5011 -0.51382,0.3329 -0.90551,0.7424 -1.16987,1.2257 l 0,-0.9315 c 0,-0.1966 -0.0812,-0.3567 -0.24276,-0.4774 -0.16159,-0.1228 -0.36935,-0.1809 -0.61881,-0.1809 -0.24947,0 -0.45946,0.058 -0.62776,0.1787 -0.17053,0.1191 -0.25318,0.2755 -0.25318,0.4699 l 0,14.4331 c 0,0.1787 0.0871,0.3351 0.26435,0.4676 0.17723,0.1363 0.38946,0.2033 0.64041,0.2033 0.24947,0 0.46542,-0.072 0.64935,-0.2144 0.18617,-0.1408 0.27553,-0.2964 0.27553,-0.461 l 0,-6.0482 c 0.2517,0.5019 0.64488,0.9197 1.18327,1.263 0.53542,0.3388 1.12817,0.5108 1.77305,0.5108 1.0321,0 1.93464,-0.4408 2.71505,-1.3255 0.77817,-0.8817 1.16763,-1.8899 1.16763,-3.0263 l 0,-2.2839 c 0,-1.1818 -0.38499,-2.1908 -1.1587,-3.036 -0.76924,-0.8452 -1.70975,-1.2681 -2.81111,-1.2681 z m 2.13794,6.5835 c 0,0.6814 -0.2517,1.2935 -0.75882,1.8356 -0.50711,0.5422 -1.09317,0.8147 -1.75368,0.8147 -0.64935,0 -1.22423,-0.2502 -1.73358,-0.7484 -0.50712,-0.4974 -0.76105,-0.9316 -0.76105,-1.3024 l 0,-2.8722 c 0,-0.7737 0.24499,-1.3992 0.74094,-1.8825 0.48999,-0.484 1.06264,-0.7253 1.70975,-0.7253 0.69105,0 1.28976,0.2688 1.79762,0.8027 0.50712,0.534 0.75882,1.1334 0.75882,1.8044 l 0,2.2734 z m 7.48016,-6.5835 c -1.20711,0 -2.23921,0.4185 -3.10004,1.2547 -0.85935,0.8385 -1.28976,1.8319 -1.28976,2.9817 l 0,2.3509 c 0,1.3024 0.45499,2.3509 1.36646,3.1499 0.9137,0.7998 2.09027,1.2019 3.5312,1.2019 0.98593,0 1.81028,-0.1802 2.48197,-0.5384 0.66871,-0.3589 1.00306,-0.7097 1.00306,-1.0567 0,-0.1914 -0.0745,-0.382 -0.22117,-0.5697 -0.14669,-0.1869 -0.32169,-0.28 -0.52945,-0.28 -0.13106,0 -0.30829,0.07 -0.52871,0.2123 -0.22117,0.1422 -0.50936,0.2867 -0.87052,0.4386 -0.36042,0.1474 -0.78264,0.2219 -1.2704,0.2219 -0.92487,0 -1.67922,-0.2457 -2.2608,-0.7387 -0.57935,-0.493 -0.87275,-1.1505 -0.87275,-1.9719 l 0,-0.6732 4.83213,0 c 0.3083,0 0.55552,-0.016 0.73871,-0.045 0.18319,-0.03 0.38276,-0.1036 0.59648,-0.2167 0.21223,-0.1132 0.36935,-0.3001 0.47435,-0.5652 0.10053,-0.2659 0.15489,-0.6166 0.15489,-1.056 0,-1.1736 -0.42222,-2.1498 -1.25923,-2.9317 -0.83626,-0.7789 -1.82889,-1.1691 -2.97642,-1.1691 z m 2.29505,4.5603 c -0.13553,0.097 -0.39169,0.1452 -0.7737,0.1452 l -4.08226,0 0,-0.8065 c 0,-0.6881 0.2517,-1.2644 0.75211,-1.7365 0.50042,-0.4722 1.09541,-0.7052 1.78646,-0.7052 0.70594,0 1.30316,0.2531 1.78868,0.7595 0.48329,0.5086 0.72605,1.0991 0.72605,1.7708 0,0.2845 -0.0685,0.4759 -0.19734,0.5727 z m 8.18387,0.5458 c -0.53169,-0.1966 -1.06487,-0.3619 -1.59805,-0.4989 -0.53765,-0.1363 -0.9904,-0.3254 -1.35976,-0.5652 -0.36712,-0.242 -0.55105,-0.5771 -0.55105,-0.9979 0,-0.4088 0.16606,-0.7752 0.49818,-1.0991 0.32989,-0.3254 0.83328,-0.4862 1.51093,-0.4862 0.49818,0 1.00157,0.1087 1.50869,0.3261 0.50935,0.2212 0.79158,0.3299 0.85041,0.3299 0.20552,0 0.37829,-0.111 0.52052,-0.3373 0.13776,-0.2219 0.20776,-0.4245 0.20776,-0.6017 0,-0.3068 -0.32319,-0.5764 -0.97105,-0.8162 -0.64711,-0.2375 -1.35975,-0.3589 -2.13793,-0.3589 -1.21976,0 -2.12974,0.3075 -2.72398,0.9241 -0.59722,0.6144 -0.89435,1.3449 -0.89435,2.1864 0,0.697 0.18394,1.2547 0.55106,1.6777 0.36712,0.423 0.8154,0.7253 1.34486,0.9063 0.53095,0.1824 1.0604,0.347 1.58912,0.4996 0.52722,0.1512 0.977,0.3746 1.34486,0.6687 0.36936,0.2942 0.55329,0.6918 0.55329,1.1885 0,0.4073 -0.16606,0.7484 -0.49669,1.0195 -0.33212,0.2733 -0.86605,0.4095 -1.60029,0.4095 -0.55924,0 -1.04476,-0.09 -1.45582,-0.2688 -0.41105,-0.1802 -0.72828,-0.3634 -0.9487,-0.5496 -0.22042,-0.1876 -0.38946,-0.2807 -0.50489,-0.2807 -0.17723,0 -0.32765,0.093 -0.45499,0.2807 -0.12435,0.187 -0.18765,0.3776 -0.18765,0.5734 0,0.4022 0.35446,0.7886 1.0604,1.155 0.70594,0.3664 1.5571,0.5496 2.56016,0.5496 1.1587,0 2.06421,-0.2696 2.71133,-0.7998 0.64711,-0.5339 0.97104,-1.2607 0.97104,-2.1796 0,-0.7529 -0.18393,-1.368 -0.55105,-1.8453 -0.37085,-0.4781 -0.8169,-0.8147 -1.34636,-1.0098 z m 7.63282,3.9482 -0.68658,0 c -0.67541,0 -1.14828,-0.1318 -1.42082,-0.3894 -0.27106,-0.2584 -0.40882,-0.7052 -0.40882,-1.3449 l 0,-5.7302 2.78057,0 c 0.15936,0 0.29266,-0.07 0.39617,-0.2107 0.10499,-0.1423 0.15489,-0.3106 0.15489,-0.5042 0,-0.1928 -0.0506,-0.3663 -0.15489,-0.516 -0.10277,-0.149 -0.23606,-0.2219 -0.39617,-0.2219 l -2.78057,0 0,-4.3042 c 0,-0.1787 -0.0961,-0.3306 -0.2867,-0.4595 -0.18989,-0.1243 -0.40435,-0.1906 -0.63818,-0.1906 -0.22265,0 -0.42818,0.066 -0.61882,0.1906 -0.19063,0.1289 -0.28669,0.2808 -0.28669,0.4595 l 0,11.5393 c 0,2.2564 1.21976,3.3868 3.66003,3.3868 l 0.68658,0 c 0.23606,0 0.42446,-0.086 0.57265,-0.2577 0.14669,-0.1705 0.22116,-0.3738 0.22116,-0.6076 0,-0.2339 -0.0722,-0.4342 -0.20999,-0.595 -0.14,-0.1616 -0.33212,-0.2443 -0.58382,-0.2443 z m -136.596882,10.9742 -1.419332,0 c -0.07521,0 -0.136274,0.022 -0.183932,0.064 -0.04766,0.044 -0.07149,0.096 -0.07149,0.1564 l 0,5.127 c 0,0.072 0.03128,0.1273 0.09457,0.1676 0.06255,0.041 0.136274,0.062 0.221166,0.062 0.08564,0 0.159358,-0.021 0.22191,-0.062 0.06255,-0.04 0.09457,-0.096 0.09457,-0.1676 l 0,-1.9756 1.012744,0 c 0.491479,0 0.883917,-0.134 1.180294,-0.4014 0.294887,-0.2666 0.443076,-0.6843 0.443076,-1.2547 l 0,-0.069 c 0,-0.5689 -0.145955,-0.9859 -0.435629,-1.2503 -0.291164,-0.2643 -0.677645,-0.3961 -1.157954,-0.3961 z m 0.962107,1.7544 c 0,0.3612 -0.08638,0.6315 -0.259144,0.8124 -0.172017,0.181 -0.417012,0.2711 -0.73275,0.2711 l -1.012744,0 0,-2.2586 1.012744,0 c 0.314993,0 0.559988,0.09 0.73275,0.2711 0.173507,0.1809 0.259144,0.452 0.259144,0.8131 l 0,0.091 z m 2.45516,0.1601 c -0.400629,0 -0.746899,0.1467 -1.039552,0.4386 -0.293398,0.2927 -0.439352,0.6345 -0.439352,1.0262 l 0,0.7774 c 0,0.3917 0.147443,0.7365 0.443075,1.0336 0.294888,0.2978 0.641157,0.4468 1.035829,0.4468 0.396162,0 0.742431,-0.1497 1.040297,-0.4505 0.297866,-0.3001 0.446799,-0.6434 0.446799,-1.0299 l 0,-0.7774 c 0,-0.397 -0.147443,-0.7402 -0.443075,-1.0299 -0.294888,-0.2904 -0.643391,-0.4349 -1.044021,-0.4349 z m 0.864556,2.2407 c 0,0.2331 -0.08564,0.4416 -0.256164,0.6255 -0.170529,0.1839 -0.373078,0.2763 -0.609136,0.2763 -0.230102,0 -0.429672,-0.091 -0.6002,-0.2726 -0.170529,-0.1824 -0.254676,-0.3924 -0.254676,-0.6292 l 0,-0.7737 c 0,-0.2271 0.0834,-0.4319 0.250952,-0.6136 0.16755,-0.1825 0.369354,-0.2741 0.603924,-0.2741 0.236058,0 0.438607,0.091 0.609136,0.2741 0.170528,0.1817 0.256164,0.3865 0.256164,0.6136 l 0,0.7737 z m 5.765197,-2.1297 c -0.08415,-0.054 -0.172018,-0.081 -0.262122,-0.081 -0.105743,0 -0.170528,0.04 -0.195102,0.1222 l -0.916683,2.5862 -0.690305,-2.3346 c -0.03574,-0.1012 -0.115423,-0.1526 -0.240526,-0.1526 -0.115423,0 -0.18989,0.051 -0.2234,0.1526 l -0.705942,2.3115 -0.908492,-2.5631 c -0.03053,-0.082 -0.0983,-0.1222 -0.202548,-0.1222 -0.09085,0 -0.177231,0.026 -0.259889,0.081 -0.08266,0.053 -0.123614,0.1184 -0.123614,0.1943 0,0.019 0.0097,0.06 0.02979,0.1221 l 1.163166,3.1433 c 0.04021,0.1065 0.125849,0.1601 0.255421,0.1601 0.138507,0 0.223399,-0.055 0.256909,-0.1646 l 0.717857,-2.2191 0.728282,2.2459 c 0.035,0.092 0.119891,0.1378 0.256165,0.1378 0.130317,0 0.212974,-0.045 0.247229,-0.1378 l 1.171358,-3.1656 c 0.02011,-0.041 0.03053,-0.082 0.03053,-0.1221 0,-0.076 -0.04319,-0.1415 -0.128082,-0.1943 z m 2.038148,-0.111 c -0.411055,0 -0.762537,0.143 -1.05519,0.4274 -0.293398,0.2852 -0.439353,0.6233 -0.439353,1.0143 l 0,0.8012 c 0,0.4424 0.154891,0.7998 0.465416,1.0716 0.309781,0.2718 0.71041,0.4088 1.201145,0.4088 0.335844,0 0.616582,-0.061 0.845194,-0.1832 0.227123,-0.1221 0.341802,-0.2412 0.341802,-0.3582 0,-0.066 -0.02532,-0.131 -0.07521,-0.1943 -0.05064,-0.063 -0.110955,-0.095 -0.180953,-0.095 -0.04468,0 -0.105743,0.024 -0.180954,0.072 -0.07447,0.048 -0.173507,0.099 -0.296376,0.1489 -0.12287,0.051 -0.26659,0.076 -0.431906,0.076 -0.315738,0 -0.571903,-0.084 -0.769984,-0.2517 -0.198081,-0.1676 -0.296376,-0.3925 -0.296376,-0.6717 l 0,-0.2294 1.644965,0 c 0.104253,0 0.189145,-0.01 0.250952,-0.015 0.06255,-0.01 0.130316,-0.036 0.202549,-0.074 0.07223,-0.04 0.126593,-0.1035 0.161592,-0.1929 0.035,-0.09 0.05362,-0.2107 0.05362,-0.3596 0,-0.3992 -0.142976,-0.7321 -0.428183,-0.9972 -0.285206,-0.2651 -0.62254,-0.3976 -1.012744,-0.3976 z m 0.781154,1.5526 c -0.04468,0.033 -0.133295,0.049 -0.262867,0.049 l -1.3888,0 0,-0.2748 c 0,-0.2338 0.08415,-0.4312 0.254675,-0.5913 0.170528,-0.1601 0.373077,-0.2405 0.609136,-0.2405 0.240527,0 0.443076,0.086 0.607647,0.2599 0.165315,0.1735 0.248718,0.3738 0.248718,0.6024 -7.45e-4,0.097 -0.02383,0.1616 -0.06851,0.1951 z m 3.184187,-1.5526 -0.254675,0 c -0.215208,0 -0.411055,0.062 -0.586052,0.1854 -0.174996,0.1229 -0.308291,0.2726 -0.397651,0.4483 l 0,-0.3634 c 0,-0.067 -0.02755,-0.1206 -0.08266,-0.1631 -0.05585,-0.041 -0.122869,-0.062 -0.203293,-0.062 -0.09011,0 -0.163082,0.021 -0.221166,0.062 -0.05808,0.04 -0.08638,0.094 -0.08638,0.1601 l 0,3.1656 c 0,0.061 0.02904,0.1147 0.0901,0.1601 0.05957,0.045 0.13255,0.069 0.217442,0.069 0.08564,0 0.159358,-0.025 0.22191,-0.073 0.06255,-0.047 0.09457,-0.1 0.09457,-0.1557 l 0,-1.735 c 0,-0.3299 0.09457,-0.5987 0.285206,-0.8065 0.18989,-0.2085 0.412545,-0.3128 0.667965,-0.3128 l 0.254675,0 c 0.06479,0 0.122125,-0.028 0.169784,-0.085 0.04766,-0.057 0.07149,-0.1237 0.07149,-0.2011 0,-0.077 -0.02383,-0.1452 -0.07149,-0.2048 -0.0484,-0.059 -0.104998,-0.089 -0.169784,-0.089 z m 1.997192,0 c -0.411055,0 -0.761793,0.143 -1.055191,0.4274 -0.292653,0.2852 -0.439352,0.6233 -0.439352,1.0143 l 0,0.8012 c 0,0.4424 0.15489,0.7998 0.465416,1.0716 0.310525,0.2718 0.71041,0.4088 1.201889,0.4088 0.335844,0 0.617327,-0.061 0.84445,-0.1832 0.228612,-0.1221 0.341801,-0.2412 0.341801,-0.3582 0,-0.066 -0.02457,-0.131 -0.07521,-0.1943 -0.04989,-0.063 -0.11021,-0.095 -0.179464,-0.095 -0.04617,0 -0.105742,0.024 -0.180954,0.072 -0.07521,0.048 -0.174251,0.099 -0.297121,0.1489 -0.12287,0.051 -0.265845,0.076 -0.431906,0.076 -0.314993,0 -0.571902,-0.084 -0.769239,-0.2517 -0.198081,-0.1676 -0.297121,-0.3925 -0.297121,-0.6717 l 0,-0.2294 1.644965,0 c 0.105742,0 0.189145,-0.01 0.252441,-0.015 0.06255,-0.01 0.128827,-0.036 0.202549,-0.074 0.07223,-0.04 0.126593,-0.1035 0.161593,-0.1929 0.035,-0.09 0.05213,-0.2107 0.05213,-0.3596 0,-0.3992 -0.142231,-0.7321 -0.428182,-0.9972 -0.284462,-0.2651 -0.62254,-0.3976 -1.013489,-0.3976 z m 0.781153,1.5526 c -0.04468,0.033 -0.131805,0.049 -0.262122,0.049 l -1.389545,0 0,-0.2748 c 0,-0.2338 0.08489,-0.4312 0.25542,-0.5913 0.169784,-0.1601 0.372333,-0.2405 0.607647,-0.2405 0.240527,0 0.443076,0.086 0.609136,0.2599 0.164571,0.1735 0.247229,0.3738 0.247229,0.6024 7.45e-4,0.097 -0.02234,0.1616 -0.06777,0.1951 z m 3.861088,-3.6816 c -0.0901,0 -0.165315,0.02 -0.225633,0.062 -0.05957,0.041 -0.09011,0.094 -0.09011,0.1601 l 0,2.4946 c -0.0901,-0.1645 -0.22042,-0.3045 -0.390949,-0.4177 -0.170528,-0.1125 -0.367864,-0.1698 -0.593498,-0.1698 -0.36563,0 -0.681368,0.1437 -0.946469,0.4312 -0.265845,0.2867 -0.397651,0.6314 -0.397651,1.0336 l 0,0.7774 c 0,0.3865 0.131806,0.7298 0.397651,1.0299 0.265101,0.3008 0.573392,0.4505 0.923385,0.4505 0.225633,0 0.433395,-0.06 0.623284,-0.178 0.190635,-0.1184 0.328398,-0.2599 0.413289,-0.4252 l 0,0.3098 c 0,0.062 0.0283,0.1154 0.08638,0.1623 0.05808,0.046 0.123615,0.07 0.198826,0.07 0.08564,0 0.157869,-0.022 0.218187,-0.069 0.05957,-0.045 0.0901,-0.099 0.0901,-0.1594 l 0,-5.3407 c 0,-0.066 -0.0283,-0.1199 -0.08638,-0.1601 -0.05659,-0.04 -0.129571,-0.061 -0.220421,-0.061 z m -0.315738,4.5745 c 0,0.1258 -0.08713,0.274 -0.262866,0.4431 -0.174997,0.1697 -0.372333,0.2539 -0.593498,0.2539 -0.225634,0 -0.42297,-0.092 -0.593498,-0.2763 -0.170529,-0.1847 -0.254676,-0.3932 -0.254676,-0.6255 l 0,-0.7737 c 0,-0.2271 0.08415,-0.4319 0.254676,-0.6136 0.170528,-0.1825 0.370098,-0.2741 0.6002,-0.2741 0.225633,0 0.423714,0.083 0.594242,0.2465 0.169784,0.1646 0.254676,0.3783 0.254676,0.6404 l 0,0.9793 z m 4.634051,-2.4455 c -0.224889,0 -0.422225,0.057 -0.593498,0.1698 -0.170529,0.1139 -0.3001,0.2532 -0.390205,0.4177 l 0,-2.4946 c 0,-0.066 -0.03053,-0.1191 -0.0901,-0.1601 -0.06032,-0.041 -0.135529,-0.062 -0.225634,-0.062 -0.0901,0 -0.163826,0.02 -0.22191,0.062 -0.05659,0.04 -0.08638,0.094 -0.08638,0.1601 l 0,5.3407 c 0,0.06 0.03053,0.114 0.09085,0.1594 0.05957,0.047 0.131806,0.069 0.217442,0.069 0.07521,0 0.141487,-0.023 0.198826,-0.07 0.05808,-0.047 0.08638,-0.1006 0.08638,-0.1624 l 0,-0.3098 c 0.08564,0.1654 0.222655,0.3076 0.413289,0.4252 0.18989,0.1184 0.397651,0.178 0.623285,0.178 0.349992,0 0.658284,-0.1497 0.924129,-0.4505 0.265101,-0.3001 0.397651,-0.6434 0.397651,-1.0299 l 0,-0.7774 c 0,-0.4021 -0.13255,-0.7469 -0.397651,-1.0336 -0.265101,-0.2882 -0.580839,-0.4319 -0.946469,-0.4319 z m 0.72158,2.2407 c 0,0.2331 -0.08564,0.4416 -0.256165,0.6255 -0.169783,0.1847 -0.367864,0.2763 -0.593498,0.2763 -0.219676,0 -0.417757,-0.085 -0.593498,-0.2539 -0.174996,-0.1691 -0.262866,-0.3173 -0.262866,-0.4431 l 0,-0.9785 c 0,-0.2629 0.08564,-0.4759 0.256164,-0.6404 0.169784,-0.1639 0.367865,-0.2465 0.593498,-0.2465 0.230102,0 0.431161,0.091 0.600945,0.274 0.170528,0.1817 0.256165,0.3865 0.256165,0.6136 l 0,0.773 z m 3.946725,-2.1491 c -0.09234,-0.062 -0.181699,-0.092 -0.26659,-0.092 -0.09532,0 -0.160103,0.043 -0.195103,0.1288 l -0.894342,2.6428 -0.991149,-2.6428 c -0.03053,-0.086 -0.0983,-0.1288 -0.202549,-0.1288 -0.09085,0 -0.180954,0.03 -0.270314,0.092 -0.09085,0.06 -0.135529,0.1311 -0.135529,0.2122 0,0.025 0.01043,0.053 0.03053,0.083 l 1.246569,3.0747 c -0.07521,0.3999 -0.218932,0.7276 -0.431906,0.9837 -0.212974,0.2555 -0.431906,0.3828 -0.657539,0.3828 -0.119891,0 -0.180954,0.096 -0.180954,0.286 0,0.1965 0.0983,0.2941 0.293398,0.2941 0.130317,0 0.253931,-0.023 0.371588,-0.069 0.118402,-0.045 0.218932,-0.097 0.304568,-0.1526 0.08564,-0.056 0.173507,-0.146 0.262867,-0.2711 0.0901,-0.1251 0.160103,-0.2241 0.209995,-0.3008 0.05064,-0.077 0.112445,-0.2011 0.187656,-0.3746 0.07521,-0.1735 0.125848,-0.2949 0.150422,-0.3664 l 0.142976,-0.382 1.141571,-3.106 c 0.01489,-0.025 0.02234,-0.051 0.02234,-0.077 0,-0.083 -0.04542,-0.1571 -0.138507,-0.2174 z m 7.087721,0.8891 -2.204953,0 0,2.1923 2.204953,0 0,-2.1923 z m 3.353971,4.8716 c -0.204782,-0.2077 -0.306802,-0.659 -0.306802,-1.3553 l 0,-7.9634 c 0.904768,0.025 1.61369,0.3224 2.12453,0.8906 0.486266,0.5443 0.782643,1.3769 0.88913,2.4984 l 0.574881,-0.098 -0.107232,-3.8083 -8.636624,0 -0.107232,3.8083 0.574881,0.098 c 0.106487,-1.1215 0.401375,-1.9541 0.885407,-2.4984 0.508606,-0.5682 1.213804,-0.8646 2.114849,-0.8906 l 0,7.9634 c 0,0.4111 -0.0283,0.7186 -0.08415,0.9212 -0.106487,0.3909 -0.36563,0.6292 -0.776685,0.7149 -0.203294,0.041 -0.519032,0.061 -0.94498,0.061 l 0,0.6092 5.313185,0 0,-0.6092 c -0.297866,0 -0.507117,-0.01 -0.629987,-0.016 -0.414778,-0.039 -0.708921,-0.149 -0.883173,-0.3262 z m 1.096147,-2.68 2.204953,0 0,-2.1923 -2.204953,0 0,2.1923 z m 6.614115,0 2.205698,0 0,-2.1923 -2.205698,0 0,2.1923 z m 6.614859,0 2.204949,0 0,-2.1923 -2.204949,0 0,2.1923 z" />
    </g>
</svg>
