<svg
     xmlns:dc="http://purl.org/dc/elements/1.1/"
     xmlns:cc="http://creativecommons.org/ns#"
     xmlns:rdf="http://www.w3.org/1999/02/22-rdf-syntax-ns#"
     xmlns:svg="http://www.w3.org/2000/svg"
     xmlns="http://www.w3.org/2000/svg"
     version="1.1"
     id="svg4760"
     viewBox="0 0 35 35.000001"
     height="35"
     width="35">
    <defs
         id="defs4762" />
    <metadata
         id="metadata4765">
        <rdf:RDF>
            <cc:Work
                 rdf:about="">
                <dc:format>image/svg+xml</dc:format>
                <dc:type
                     rdf:resource="http://purl.org/dc/dcmitype/StillImage" />
                <dc:title></dc:title>
            </cc:Work>
        </rdf:RDF>
    </metadata>
    <g
         transform="translate(0,-1017.3622)"
         id="layer1">
        <path
             id="path4163"
             d="m 17.5,1017.3622 a 17.5,17.5 0 0 0 -17.5,17.5 17.5,17.5 0 0 0 17.5,17.5 17.5,17.5 0 0 0 17.5,-17.5 17.5,17.5 0 0 0 -17.5,-17.5 z m -4.166124,8.7519 c 0.573611,0 1.06709,0.213 1.475423,0.6437 0.410278,0.4288 0.617133,0.9448 0.617134,1.5476 l 0,2.1913 6.24159,0 c 0.580416,0 1.075476,0.2159 1.490614,0.6456 0.415139,0.4297 0.62283,0.9458 0.62283,1.5476 0,0.6008 -0.208663,1.116 -0.62283,1.5457 -0.413195,0.4297 -0.908389,0.6456 -1.484917,0.6456 l -6.247287,0 0,2.1742 c 0,0.6037 0.203194,1.1171 0.607639,1.54 0.405416,0.4219 0.896023,0.6323 1.473523,0.6323 l 4.164226,0 c 0.5775,0 1.074594,0.214 1.486816,0.6437 0.414166,0.4297 0.620931,0.9458 0.620931,1.5476 0,0.6018 -0.207737,1.1188 -0.620931,1.5476 -0.413195,0.4297 -0.906445,0.6437 -1.484917,0.6437 l -4.164225,0 c -1.733472,0 -3.214426,-0.6412 -4.445259,-1.9236 -1.230833,-1.2823 -1.845703,-2.8249 -1.845703,-4.6313 l 0,-8.75 c 0,-0.6183 0.204957,-1.137 0.615234,-1.559 0.409306,-0.4209 0.90997,-0.6323 1.500109,-0.6323 z"
             style="fill:#fef5df;fill-opacity:1" />
    </g>
</svg>
