<?xml version="1.0" encoding="UTF-8" standalone="no"?>
<!-- Generator: Adobe Illustrator 17.0.0, SVG Export Plug-In . SVG Version: 6.00 Build 0)  -->

<svg
     xmlns:dc="http://purl.org/dc/elements/1.1/"
     xmlns:cc="http://creativecommons.org/ns#"
     xmlns:rdf="http://www.w3.org/1999/02/22-rdf-syntax-ns#"
     xmlns:svg="http://www.w3.org/2000/svg"
     xmlns="http://www.w3.org/2000/svg"
     xmlns:sodipodi="http://sodipodi.sourceforge.net/DTD/sodipodi-0.dtd"
     xmlns:inkscape="http://www.inkscape.org/namespaces/inkscape"
     version="1.1"
     id="Layer_1"
     x="0px"
     y="0px"
     width="94px"
     height="94px"
     viewBox="433 233 94 94"
     enable-background="new 433 233 94 94"
     xml:space="preserve"
     inkscape:version="0.91 r13725"
     sodipodi:docname="Apply.svg"
     inkscape:export-filename="/home/petervaro/documents/work/kibu/remote/openpage/img/apply_here.png"
     inkscape:export-xdpi="1024.4681"
     inkscape:export-ydpi="1024.4681"><metadata
         id="metadata43"><rdf:RDF><cc:Work
                 rdf:about=""><dc:format>image/svg+xml</dc:format><dc:type
                     rdf:resource="http://purl.org/dc/dcmitype/StillImage" /></cc:Work></rdf:RDF></metadata><defs
         id="defs41" /><sodipodi:namedview
         pagecolor="#ffffff"
         bordercolor="#666666"
         borderopacity="1"
         objecttolerance="10"
         gridtolerance="10"
         guidetolerance="10"
         inkscape:pageopacity="0"
         inkscape:pageshadow="2"
         inkscape:window-width="2560"
         inkscape:window-height="1422"
         id="namedview39"
         showgrid="false"
         inkscape:zoom="10.042553"
         inkscape:cx="37.371075"
         inkscape:cy="46.726977"
         inkscape:window-x="0"
         inkscape:window-y="0"
         inkscape:window-maximized="1"
         inkscape:current-layer="Layer_1" /><g
         id="g3"><path
             fill="#E6DED3"
             d="M480,327c-25.916,0-47-21.084-47-47s21.084-47,47-47s47,21.084,47,47S505.916,327,480,327z"
             id="path5" /><path
             fill="#1F9DA7"
             d="M480,240.678c21.717,0,39.322,17.605,39.322,39.322S501.717,319.322,480,319.322   S440.678,301.717,440.678,280S458.283,240.678,480,240.678z"
             id="path7" /><path
             fill="none"
             stroke="#1F9DA7"
             stroke-width="5.4009"
             stroke-miterlimit="10"
             d="M480,235.701   c24.466,0,44.299,19.833,44.299,44.299S504.466,324.299,480,324.299S435.701,304.466,435.701,280   C435.701,255.535,455.534,235.701,480,235.701z"
             id="path9" /><g
             enable-background="new    "
             id="g11"><path
                 fill="#E6DED3"
                 d="M457.485,275.078h-5.587l-1.295,4.495h-2.997l5.409-16.609h3.454l5.41,16.609h-3.098L457.485,275.078z     M456.825,272.767l-0.584-2.032c-0.271-0.881-0.529-1.786-0.775-2.717c-0.245-0.931-0.486-1.855-0.723-2.769h-0.102    c-0.237,0.931-0.473,1.859-0.711,2.781c-0.237,0.923-0.491,1.824-0.762,2.705l-0.584,2.032H456.825z"
                 id="path13" /><path
                 fill="#E6DED3"
                 d="M462.946,262.964h5.587c0.915,0,1.757,0.085,2.528,0.254c0.77,0.169,1.435,0.457,1.993,0.863    c0.559,0.406,0.999,0.936,1.321,1.588c0.322,0.652,0.482,1.46,0.482,2.426c0,0.914-0.16,1.71-0.482,2.388    c-0.322,0.677-0.766,1.24-1.334,1.689c-0.567,0.448-1.236,0.779-2.006,0.991c-0.771,0.212-1.605,0.317-2.502,0.317h-2.641v6.095    h-2.946V262.964z M468.305,271.117c2.438,0,3.657-1.007,3.657-3.022c0-1.05-0.304-1.773-0.914-2.172    c-0.61-0.398-1.524-0.597-2.743-0.597h-2.413v5.791H468.305z"
                 id="path15" /><path
                 fill="#E6DED3"
                 d="M476.991,262.964h5.587c0.914,0,1.756,0.085,2.527,0.254c0.77,0.169,1.435,0.457,1.994,0.863    s0.998,0.936,1.32,1.588c0.322,0.652,0.483,1.46,0.483,2.426c0,0.914-0.161,1.71-0.483,2.388c-0.322,0.677-0.766,1.24-1.333,1.689    c-0.568,0.448-1.237,0.779-2.007,0.991c-0.771,0.212-1.604,0.317-2.501,0.317h-2.641v6.095h-2.946V262.964z M482.349,271.117    c2.438,0,3.657-1.007,3.657-3.022c0-1.05-0.305-1.773-0.915-2.172c-0.61-0.398-1.523-0.597-2.742-0.597h-2.413v5.791H482.349z"
                 id="path17" /><path
                 fill="#E6DED3"
                 d="M491.035,262.964h2.946v14.121h6.908v2.489h-9.854V262.964z"
                 id="path19" /><path
                 fill="#E6DED3"
                 d="M503.504,273.402l-4.977-10.438h3.149l1.803,4.242c0.237,0.626,0.473,1.232,0.711,1.815    c0.237,0.584,0.491,1.199,0.762,1.841h0.102c0.27-0.643,0.533-1.257,0.786-1.841c0.255-0.583,0.5-1.189,0.737-1.815l1.803-4.242    h3.073l-5.004,10.438v6.171h-2.946V273.402z"
                 id="path21" /></g><g
             enable-background="new    "
             id="g23"><path
                 fill="#E6DED3"
                 d="M458.128,282.441h1.62v3.832l-0.059,1.975c0.461-0.435,0.941-0.807,1.442-1.116    c0.501-0.309,1.087-0.465,1.759-0.465c1.014,0,1.755,0.316,2.222,0.949c0.467,0.632,0.701,1.567,0.701,2.805v6.084h-1.62v-5.867    c0-0.908-0.145-1.563-0.435-1.965c-0.29-0.402-0.75-0.603-1.383-0.603c-0.501,0-0.941,0.125-1.323,0.375s-0.817,0.619-1.304,1.106    v6.953h-1.62V282.441z"
                 id="path25" /><path
                 fill="#E6DED3"
                 d="M468.162,291.725c0-0.79,0.122-1.498,0.366-2.123c0.244-0.626,0.567-1.156,0.968-1.59    c0.401-0.435,0.859-0.767,1.373-0.997c0.513-0.23,1.047-0.346,1.6-0.346c0.606,0,1.149,0.106,1.629,0.316    c0.481,0.211,0.883,0.514,1.205,0.909c0.322,0.395,0.569,0.869,0.741,1.422c0.17,0.553,0.257,1.172,0.257,1.857    c0,0.356-0.02,0.651-0.059,0.889h-6.479c0.066,1.041,0.385,1.864,0.959,2.469c0.573,0.606,1.32,0.909,2.242,0.909    c0.461,0,0.886-0.069,1.274-0.208c0.389-0.138,0.761-0.319,1.116-0.542l0.574,1.066c-0.422,0.263-0.89,0.494-1.403,0.691    c-0.513,0.197-1.099,0.297-1.758,0.297c-0.646,0-1.248-0.116-1.807-0.346c-0.56-0.23-1.047-0.559-1.462-0.988    c-0.415-0.428-0.741-0.951-0.978-1.57C468.28,293.22,468.162,292.516,468.162,291.725z M474.878,290.994    c0-0.988-0.208-1.741-0.622-2.261c-0.415-0.52-0.997-0.781-1.748-0.781c-0.343,0-0.669,0.069-0.978,0.207    c-0.31,0.139-0.59,0.336-0.84,0.593c-0.25,0.257-0.458,0.573-0.622,0.948c-0.164,0.375-0.273,0.807-0.326,1.294H474.878z"
                 id="path27" /><path
                 fill="#E6DED3"
                 d="M478.671,286.906h1.344l0.138,1.738h0.059c0.329-0.606,0.727-1.086,1.195-1.442    c0.468-0.356,0.978-0.534,1.531-0.534c0.381,0,0.724,0.066,1.027,0.197l-0.316,1.422c-0.157-0.052-0.303-0.091-0.435-0.118    c-0.131-0.026-0.297-0.04-0.494-0.04c-0.408,0-0.833,0.164-1.274,0.494c-0.441,0.33-0.827,0.902-1.156,1.719v6.163h-1.62V286.906z    "
                 id="path29" /><path
                 fill="#E6DED3"
                 d="M484.615,291.725c0-0.79,0.122-1.498,0.366-2.123c0.244-0.626,0.567-1.156,0.968-1.59    c0.402-0.435,0.859-0.767,1.373-0.997c0.513-0.23,1.047-0.346,1.6-0.346c0.606,0,1.149,0.106,1.629,0.316    c0.481,0.211,0.883,0.514,1.205,0.909c0.322,0.395,0.569,0.869,0.741,1.422c0.17,0.553,0.257,1.172,0.257,1.857    c0,0.356-0.02,0.651-0.059,0.889h-6.479c0.066,1.041,0.385,1.864,0.959,2.469c0.573,0.606,1.32,0.909,2.242,0.909    c0.461,0,0.886-0.069,1.274-0.208c0.389-0.138,0.761-0.319,1.116-0.542l0.574,1.066c-0.422,0.263-0.89,0.494-1.403,0.691    c-0.513,0.197-1.1,0.297-1.758,0.297c-0.646,0-1.248-0.116-1.807-0.346c-0.56-0.23-1.047-0.559-1.462-0.988    c-0.415-0.428-0.741-0.951-0.978-1.57C484.734,293.22,484.615,292.516,484.615,291.725z M491.332,290.994    c0-0.988-0.208-1.741-0.622-2.261c-0.415-0.52-0.997-0.781-1.748-0.781c-0.343,0-0.669,0.069-0.978,0.207    c-0.31,0.139-0.59,0.336-0.84,0.593s-0.458,0.573-0.622,0.948c-0.164,0.375-0.273,0.807-0.326,1.294H491.332z"
                 id="path31" /><path
                 fill="#E6DED3"
                 d="M495.184,295.518c0-0.382,0.115-0.688,0.345-0.919s0.51-0.345,0.84-0.345c0.316,0,0.589,0.115,0.82,0.345    c0.23,0.23,0.346,0.537,0.346,0.919c0,0.356-0.116,0.648-0.346,0.879c-0.23,0.23-0.504,0.346-0.82,0.346    c-0.33,0-0.61-0.116-0.84-0.346S495.184,295.874,495.184,295.518z M495.578,285.127l-0.039-1.857h1.639l-0.04,1.857l-0.217,7.467    h-1.126L495.578,285.127z"
                 id="path33" /></g><g
             id="g35"><rect
                 x="470.889"
                 y="303.012"
                 fill="#E6DED3"
                 width="18.222"
                 height="2.821"
                 id="rect37" /></g></g></svg>