<?xml version="1.0" encoding="UTF-8" standalone="no"?>
<!-- Generator: Adobe Illustrator 17.0.0, SVG Export Plug-In . SVG Version: 6.00 Build 0)  -->

<svg
   xmlns:dc="http://purl.org/dc/elements/1.1/"
   xmlns:cc="http://creativecommons.org/ns#"
   xmlns:rdf="http://www.w3.org/1999/02/22-rdf-syntax-ns#"
   xmlns:svg="http://www.w3.org/2000/svg"
   xmlns="http://www.w3.org/2000/svg"
   xmlns:sodipodi="http://sodipodi.sourceforge.net/DTD/sodipodi-0.dtd"
   xmlns:inkscape="http://www.inkscape.org/namespaces/inkscape"
   version="1.1"
   id="Layer_1"
   x="0px"
   y="0px"
   width="136"
   height="36"
   viewBox="0 0 136 36"
   enable-background="new 0 0 136 16"
   xml:space="preserve"
   inkscape:version="0.91 r13725"
   sodipodi:docname="devicehub_logo.svg"><metadata
     id="metadata13"><rdf:RDF><cc:Work
         rdf:about=""><dc:format>image/svg+xml</dc:format><dc:type
           rdf:resource="http://purl.org/dc/dcmitype/StillImage" /><dc:title></dc:title></cc:Work></rdf:RDF></metadata><defs
     id="defs11" /><sodipodi:namedview
     pagecolor="#ffffff"
     bordercolor="#666666"
     borderopacity="1"
     objecttolerance="10"
     gridtolerance="10"
     guidetolerance="10"
     inkscape:pageopacity="0"
     inkscape:pageshadow="2"
     inkscape:window-width="2560"
     inkscape:window-height="1422"
     id="namedview9"
     showgrid="false"
     inkscape:zoom="2.1470588"
     inkscape:cx="68"
     inkscape:cy="8"
     inkscape:window-x="0"
     inkscape:window-y="0"
     inkscape:window-maximized="1"
     inkscape:current-layer="Layer_1" /><path
     d="m 0.263,11.0125 3.654,0 c 2.262,0 3.979,0.628 5.153,1.884 1.176,1.256 1.764,3.058 1.764,5.406 0,1.168 -0.15,2.212 -0.449,3.132 -0.296,0.918 -0.735,1.694 -1.315,2.33 -0.578,0.637 -1.292,1.124 -2.139,1.459 -0.848,0.336 -1.823,0.504 -2.923,0.504 l -3.745,0 0,-14.715 z m 3.524,13.19 c 1.709,0 2.992,-0.515 3.846,-1.546 0.854,-1.034 1.281,-2.485 1.281,-4.354 0,-1.868 -0.427,-3.296 -1.281,-4.284 -0.854,-0.988 -2.137,-1.482 -3.846,-1.482 l -1.673,0 0,11.666 1.673,0 z m 9.216,-3.903 c 0,-0.896 0.136,-1.7 0.41,-2.409 0.275,-0.712 0.64,-1.315 1.093,-1.809 0.453,-0.493 0.969,-0.87 1.55,-1.13 0.58,-0.263 1.183,-0.395 1.808,-0.395 0.682,0 1.295,0.121 1.838,0.36 0.542,0.24 0.995,0.585 1.359,1.033 0.366,0.447 0.645,0.985 0.836,1.612 0.194,0.628 0.292,1.332 0.292,2.112 0,0.403 -0.022,0.739 -0.065,1.007 l -7.318,0 c 0.075,1.181 0.436,2.115 1.08,2.804 0.647,0.69 1.492,1.034 2.535,1.034 0.519,0 0.998,-0.079 1.437,-0.237 0.438,-0.158 0.858,-0.363 1.259,-0.618 l 0.649,1.209 c -0.477,0.301 -1.005,0.564 -1.586,0.789 -0.582,0.221 -1.244,0.333 -1.986,0.333 -0.726,0 -1.406,-0.13 -2.038,-0.39 -0.634,-0.263 -1.184,-0.637 -1.651,-1.121 -0.468,-0.488 -0.835,-1.082 -1.102,-1.783 -0.267,-0.704 -0.4,-1.505 -0.4,-2.401 l 0,0 z m 7.58,-0.828 c 0,-1.121 -0.234,-1.977 -0.701,-2.567 -0.468,-0.592 -1.126,-0.889 -1.973,-0.889 -0.387,0 -0.756,0.079 -1.106,0.237 -0.348,0.158 -0.664,0.383 -0.945,0.674 -0.282,0.289 -0.516,0.647 -0.701,1.073 -0.186,0.427 -0.309,0.918 -0.37,1.472 l 5.796,0 z m 2.852,-4.644 1.899,0 2.052,6.19 c 0.162,0.538 0.329,1.076 0.501,1.616 0.171,0.538 0.338,1.068 0.501,1.59 l 0.091,0 c 0.162,-0.523 0.324,-1.052 0.488,-1.59 0.165,-0.54 0.329,-1.079 0.492,-1.616 l 2.052,-6.19 1.808,0 -3.838,10.899 -2.143,0 -3.903,-10.899 z m 12.911,-2.243 c -0.357,0 -0.66,-0.112 -0.906,-0.337 -0.244,-0.225 -0.366,-0.509 -0.366,-0.854 0,-0.359 0.122,-0.646 0.366,-0.863 0.246,-0.216 0.549,-0.324 0.906,-0.324 0.357,0 0.658,0.108 0.902,0.324 0.246,0.217 0.37,0.504 0.37,0.863 0,0.345 -0.124,0.63 -0.37,0.854 -0.244,0.226 -0.545,0.337 -0.902,0.337 l 0,0 z m -0.937,2.243 1.83,0 0,10.899 -1.83,0 0,-10.899 z m 4.687,5.472 c 0,-0.911 0.14,-1.722 0.422,-2.431 0.281,-0.712 0.66,-1.315 1.137,-1.809 0.476,-0.493 1.029,-0.867 1.659,-1.122 0.633,-0.254 1.299,-0.381 1.999,-0.381 0.711,0 1.324,0.132 1.838,0.395 0.514,0.26 0.956,0.562 1.328,0.907 l -0.915,1.191 c -0.329,-0.286 -0.668,-0.518 -1.019,-0.696 -0.348,-0.181 -0.738,-0.272 -1.167,-0.272 -0.491,0 -0.945,0.103 -1.363,0.307 -0.416,0.201 -0.773,0.49 -1.072,0.863 -0.296,0.374 -0.53,0.819 -0.701,1.336 -0.169,0.515 -0.253,1.085 -0.253,1.713 0,0.628 0.081,1.196 0.244,1.704 0.162,0.508 0.389,0.946 0.68,1.314 0.29,0.366 0.643,0.649 1.058,0.85 0.418,0.201 0.872,0.302 1.363,0.302 0.52,0 0.991,-0.107 1.416,-0.324 0.424,-0.216 0.798,-0.474 1.124,-0.775 l 0.828,1.214 c -0.491,0.432 -1.039,0.775 -1.642,1.029 -0.601,0.254 -1.228,0.381 -1.882,0.381 -0.715,0 -1.384,-0.127 -2.008,-0.381 -0.625,-0.254 -1.163,-0.623 -1.616,-1.108 -0.453,-0.484 -0.81,-1.082 -1.072,-1.792 -0.258,-0.714 -0.386,-1.519 -0.386,-2.415 l 0,0 z m 9.67,0 c 0,-0.896 0.136,-1.7 0.41,-2.409 0.275,-0.712 0.64,-1.315 1.093,-1.809 0.453,-0.493 0.969,-0.87 1.55,-1.13 0.58,-0.263 1.182,-0.395 1.808,-0.395 0.682,0 1.294,0.121 1.838,0.36 0.542,0.24 0.996,0.585 1.359,1.033 0.366,0.447 0.645,0.985 0.836,1.612 0.194,0.628 0.292,1.332 0.292,2.112 0,0.403 -0.022,0.739 -0.065,1.007 l -7.318,0 c 0.075,1.181 0.435,2.115 1.08,2.804 0.647,0.69 1.492,1.034 2.535,1.034 0.519,0 0.999,-0.079 1.437,-0.237 0.438,-0.158 0.858,-0.363 1.259,-0.618 l 0.649,1.209 c -0.477,0.301 -1.005,0.564 -1.586,0.789 -0.582,0.221 -1.244,0.333 -1.986,0.333 -0.726,0 -1.406,-0.13 -2.038,-0.39 -0.634,-0.263 -1.184,-0.637 -1.651,-1.121 -0.468,-0.488 -0.835,-1.082 -1.102,-1.783 -0.267,-0.704 -0.4,-1.505 -0.4,-2.401 l 0,0 z m 7.579,-0.828 c 0,-1.121 -0.234,-1.977 -0.701,-2.567 -0.468,-0.592 -1.126,-0.889 -1.973,-0.889 -0.387,0 -0.756,0.079 -1.106,0.237 -0.348,0.158 -0.664,0.383 -0.945,0.674 -0.282,0.289 -0.516,0.647 -0.701,1.073 -0.186,0.427 -0.309,0.918 -0.37,1.472 l 5.796,0 z m 0,0"
     id="path3"
     inkscape:connector-curvature="0"
     style="fill:#fef5df" /><path
     d="m 61.517,11.1045 3.28,0 0,5.629 5.018,0 0,-5.629 3.302,0 0,14.622 -3.302,0 0,-6.102 -5.018,0 0,6.102 -3.28,0 0,-14.622 z m 14.649,3.496 3.28,0 0,6.483 c 0,0.809 0.11,1.362 0.331,1.66 0.223,0.298 0.573,0.447 1.05,0.447 0.418,0 0.768,-0.096 1.05,-0.289 0.281,-0.195 0.586,-0.509 0.915,-0.941 l 0,-7.36 3.275,0 0,11.126 -2.674,0 -0.244,-1.547 -0.07,0 c -0.474,0.567 -0.982,1.011 -1.524,1.332 -0.543,0.321 -1.194,0.482 -1.951,0.482 -1.205,0 -2.08,-0.395 -2.622,-1.187 -0.543,-0.791 -0.815,-1.89 -0.815,-3.299 l 0,-6.907 z m 12.788,-4.596 3.275,0 0,3.859 -0.087,1.704 c 0.429,-0.388 0.893,-0.69 1.389,-0.907 0.499,-0.219 1.011,-0.329 1.533,-0.329 0.668,0 1.269,0.135 1.803,0.403 0.537,0.27 0.994,0.647 1.372,1.135 0.38,0.485 0.671,1.075 0.871,1.77 0.2,0.696 0.3,1.47 0.3,2.322 0,0.958 -0.131,1.811 -0.392,2.558 -0.259,0.748 -0.608,1.379 -1.045,1.896 -0.439,0.515 -0.937,0.906 -1.494,1.174 -0.557,0.268 -1.135,0.403 -1.729,0.403 -0.491,0 -0.987,-0.118 -1.485,-0.355 -0.497,-0.239 -0.96,-0.598 -1.389,-1.078 l -0.092,0 -0.266,1.165 -2.565,0 0,-15.72 z m 3.275,12.581 c 0.298,0.269 0.597,0.456 0.893,0.561 0.299,0.105 0.589,0.158 0.871,0.158 0.563,0 1.045,-0.256 1.446,-0.771 0.403,-0.517 0.605,-1.35 0.605,-2.501 0,-2.006 -0.639,-3.01 -1.917,-3.01 -0.657,0 -1.289,0.337 -1.899,1.012 l 0,4.551 z m 0,0"
     id="path5"
     inkscape:connector-curvature="0"
     style="fill:#fef5df" /><path
     d="m 101.716,24.6055 c 0,-0.432 0.129,-0.78 0.388,-1.043 0.261,-0.263 0.577,-0.394 0.949,-0.394 0.357,0 0.664,0.132 0.924,0.394 0.261,0.263 0.392,0.611 0.392,1.043 0,0.403 -0.131,0.736 -0.392,0.999 -0.259,0.259 -0.566,0.39 -0.924,0.39 -0.372,0 -0.688,-0.13 -0.949,-0.39 -0.259,-0.263 -0.388,-0.596 -0.388,-0.999 l 0,0 z m 5.911,-9.778 1.516,0 0.157,1.568 0.065,0 c 0.519,-0.522 1.065,-0.959 1.638,-1.31 0.575,-0.353 1.241,-0.53 1.999,-0.53 1.143,0 1.979,0.36 2.509,1.078 0.528,0.718 0.793,1.781 0.793,3.184 l 0,6.908 -1.83,0 0,-6.662 c 0,-1.03 -0.164,-1.774 -0.492,-2.23 -0.329,-0.456 -0.848,-0.683 -1.559,-0.683 -0.566,0 -1.066,0.142 -1.498,0.425 -0.43,0.284 -0.919,0.703 -1.468,1.258 l 0,7.894 -1.829,0 0,-10.9 z m 11.395,5.472 c 0,-0.896 0.136,-1.7 0.409,-2.409 0.276,-0.712 0.64,-1.315 1.093,-1.809 0.453,-0.493 0.969,-0.87 1.551,-1.13 0.581,-0.263 1.183,-0.395 1.808,-0.395 0.682,0 1.295,0.121 1.838,0.36 0.542,0.24 0.995,0.585 1.359,1.033 0.366,0.447 0.644,0.985 0.836,1.612 0.194,0.628 0.292,1.332 0.292,2.112 0,0.403 -0.022,0.739 -0.065,1.007 l -7.318,0 c 0.075,1.181 0.436,2.115 1.08,2.804 0.647,0.69 1.492,1.034 2.535,1.034 0.52,0 0.999,-0.079 1.437,-0.237 0.438,-0.158 0.858,-0.363 1.259,-0.618 l 0.649,1.209 c -0.477,0.301 -1.005,0.564 -1.585,0.789 -0.581,0.221 -1.244,0.333 -1.986,0.333 -0.727,0 -1.406,-0.13 -2.039,-0.39 -0.634,-0.263 -1.184,-0.637 -1.651,-1.121 -0.468,-0.488 -0.835,-1.082 -1.102,-1.783 -0.268,-0.704 -0.4,-1.505 -0.4,-2.401 l 0,0 z m 7.578,-0.828 c 0,-1.121 -0.234,-1.977 -0.701,-2.567 -0.468,-0.592 -1.126,-0.889 -1.973,-0.889 -0.386,0 -0.756,0.079 -1.106,0.237 -0.349,0.158 -0.664,0.383 -0.945,0.674 -0.282,0.289 -0.516,0.647 -0.701,1.073 -0.186,0.427 -0.309,0.918 -0.37,1.472 l 5.796,0 z m 4.295,-3.141 -1.607,0 0,-1.393 1.694,-0.11 0.222,-3.053 1.537,0 0,3.053 2.923,0 0,1.503 -2.923,0 0,6.054 c 0,0.675 0.122,1.195 0.366,1.56 0.246,0.366 0.682,0.548 1.307,0.548 0.194,0 0.403,-0.029 0.627,-0.088 0.223,-0.061 0.424,-0.128 0.601,-0.201 l 0.358,1.387 c -0.296,0.105 -0.621,0.198 -0.972,0.28 -0.348,0.081 -0.695,0.122 -1.036,0.122 -0.579,0 -1.065,-0.09 -1.459,-0.267 -0.395,-0.177 -0.716,-0.423 -0.963,-0.736 -0.244,-0.316 -0.418,-0.698 -0.523,-1.148 -0.102,-0.449 -0.152,-0.943 -0.152,-1.481 l 0,-6.03 z m 0,0"
     id="path7"
     inkscape:connector-curvature="0"
     style="fill:#fef5df" /></svg>