<?xml version="1.0" encoding="utf-8"?>
<!-- Generator: Adobe Illustrator 17.0.0, SVG Export Plug-In . SVG Version: 6.00 Build 0)  -->
<!DOCTYPE svg PUBLIC "-//W3C//DTD SVG 1.1//EN" "http://www.w3.org/Graphics/SVG/1.1/DTD/svg11.dtd">
<svg version="1.1" id="LOGO_1_" xmlns="http://www.w3.org/2000/svg" xmlns:xlink="http://www.w3.org/1999/xlink" x="0px" y="0px"
	 width="446.442px" height="84px" viewBox="0 0 446.442 84" enable-background="new 0 0 446.442 84" xml:space="preserve">
<g id="KIBU_x03_HACKATHON">
	<g>
		<g>
			<path fill="#512417" d="M389.037,45.349v13.327c0,2.24,0.125,4.597,0.377,7.068c0.251,2.473,0.473,4.714,0.667,6.722h-0.232
				l-3.711-8.344l-9.856-18.773h-8.754v37.778h8.116V69.742c0-2.239-0.126-4.557-0.377-6.953c-0.252-2.394-0.474-4.635-0.666-6.721
				h0.232l3.71,8.228l9.856,18.831h8.754V45.349H389.037z M316.163,59.893h-13.045V45.349h-8.522v37.778h8.522V67.367h13.045v15.761
				h8.58V45.349h-8.58V59.893z M129.945,59.893H116.9V45.349h-8.522v37.778h8.522V67.367h13.045v15.761h8.58V45.349h-8.58V59.893z
				 M194.472,75.537c-1.159,0.618-2.513,0.927-4.058,0.927c-2.782,0-5.006-1.072-6.667-3.216c-1.662-2.144-2.493-5.167-2.493-9.068
				c0-1.893,0.241-3.592,0.724-5.099c0.483-1.506,1.15-2.781,2-3.824c0.85-1.043,1.845-1.844,2.986-2.405
				c1.139-0.56,2.367-0.84,3.681-0.84c1.314,0,2.464,0.252,3.45,0.753c0.985,0.502,1.961,1.198,2.928,2.086l4.696-5.273
				c-1.276-1.313-2.87-2.462-4.783-3.448c-1.913-0.985-4.049-1.478-6.406-1.478c-2.435,0-4.745,0.445-6.928,1.333
				c-2.184,0.889-4.097,2.183-5.739,3.882c-1.643,1.701-2.948,3.776-3.914,6.229c-0.966,2.454-1.449,5.244-1.449,8.373
				c0,3.168,0.464,5.959,1.392,8.373c0.927,2.415,2.203,4.432,3.826,6.055c1.623,1.622,3.517,2.85,5.681,3.68
				c2.164,0.83,4.464,1.246,6.899,1.246c2.357,0,4.551-0.463,6.58-1.391c2.029-0.927,3.836-2.317,5.421-4.172l-4.696-5.157
				C196.675,74.108,195.631,74.92,194.472,75.537z M151.57,45.349l-11.827,37.778h8.696l2.319-8.981h11.537l2.319,8.981h9.044
				l-11.827-37.778H151.57z M152.497,67.483l0.928-3.476c0.541-1.893,1.053-3.892,1.537-5.997c0.482-2.105,0.957-4.162,1.42-6.171
				h0.232c0.502,1.97,1.004,4.018,1.507,6.142c0.502,2.125,1.023,4.134,1.565,6.026l0.87,3.476H152.497z M262.245,52.534h10.378
				v30.594h8.58V52.534h10.377v-7.185h-29.336V52.534z M358.543,49.752c-1.507-1.66-3.315-2.926-5.421-3.795
				c-2.107-0.869-4.435-1.304-6.986-1.304c-2.551,0-4.88,0.435-6.986,1.304c-2.107,0.869-3.914,2.125-5.421,3.766
				c-1.507,1.642-2.677,3.67-3.507,6.084c-0.832,2.415-1.247,5.167-1.247,8.257c0,3.091,0.415,5.853,1.247,8.286
				c0.83,2.434,2,4.5,3.507,6.2c1.507,1.701,3.314,3.004,5.421,3.911c2.106,0.907,4.435,1.362,6.986,1.362
				c2.551,0,4.879-0.455,6.986-1.362c2.106-0.907,3.914-2.211,5.421-3.911c1.507-1.699,2.676-3.766,3.507-6.2
				c0.831-2.433,1.247-5.195,1.247-8.286c0-3.051-0.416-5.784-1.247-8.199C361.218,53.452,360.05,51.414,358.543,49.752z
				 M352.281,73.132c-1.507,2.221-3.557,3.332-6.146,3.332c-2.59,0-4.638-1.11-6.145-3.332c-1.507-2.221-2.261-5.244-2.261-9.068
				c0-3.785,0.754-6.74,2.261-8.865c1.507-2.124,3.556-3.187,6.145-3.187c2.589,0,4.638,1.063,6.146,3.187
				c1.507,2.125,2.261,5.08,2.261,8.865C354.542,67.889,353.788,70.911,352.281,73.132z M244.273,45.349L233.885,78.53
				l-10.774-18.116l11.421-15.065h-9.392l-11.248,15.471h-0.232V45.349h-8.522v37.778h8.522v-10.14l4.406-5.794l9.218,15.934h13.857
				l2.319-8.981h11.537l2.319,8.981h9.044l-11.827-37.778H244.273z M245.2,67.483l0.928-3.476c0.541-1.893,1.053-3.892,1.537-5.997
				c0.482-2.105,0.957-4.162,1.42-6.171h0.232c0.502,1.97,1.004,4.018,1.507,6.142c0.502,2.125,1.023,4.134,1.565,6.026l0.87,3.476
				H245.2z"/>
		</g>
	</g>
	<g>
		<path fill="#512417" d="M411.059,65.317c-1.819,0-3.204-0.869-4.153-2.608c-0.95-1.739-1.424-4.206-1.424-7.403
			c0-3.197,0.475-5.644,1.424-7.342c0.949-1.698,2.334-2.548,4.153-2.548c1.819,0,3.203,0.85,4.153,2.548
			c0.95,1.698,1.425,4.146,1.425,7.342c0,3.198-0.475,5.665-1.425,7.403C414.262,64.448,412.878,65.317,411.059,65.317z
			 M411.059,64.477c1.419,0,2.544-0.783,3.374-2.352c0.829-1.569,1.244-3.841,1.244-6.819c0-2.977-0.415-5.23-1.244-6.758
			c-0.83-1.529-1.954-2.293-3.374-2.293c-1.419,0-2.544,0.764-3.374,2.293c-0.83,1.528-1.244,3.781-1.244,6.758
			c0,2.978,0.415,5.25,1.244,6.819C408.514,63.694,409.639,64.477,411.059,64.477z"/>
		<path fill="#512417" d="M419.215,64.118h4.558V47.574h-3.418v-0.66c0.76-0.12,1.434-0.28,2.024-0.48
			c0.59-0.2,1.095-0.42,1.515-0.66h0.78v18.343h4.258v0.839h-9.716V64.118z"/>
		<path fill="#512417" d="M430.669,62.08c0.28,0.3,0.589,0.594,0.93,0.884c0.34,0.29,0.724,0.544,1.154,0.764
			c0.43,0.22,0.915,0.4,1.455,0.54c0.54,0.14,1.159,0.21,1.859,0.21c0.66,0,1.29-0.129,1.889-0.389
			c0.6-0.26,1.129-0.629,1.589-1.109c0.46-0.479,0.825-1.054,1.095-1.723c0.27-0.669,0.405-1.414,0.405-2.233
			c0-1.619-0.445-2.892-1.334-3.821c-0.89-0.929-2.084-1.394-3.584-1.394c-0.76,0-1.415,0.12-1.964,0.36
			c-0.55,0.24-1.115,0.56-1.695,0.959l-0.78-0.48l0.72-8.872h8.576v0.84h-7.736l-0.66,7.373c0.52-0.32,1.059-0.58,1.619-0.779
			c0.56-0.2,1.219-0.3,1.979-0.3c0.799,0,1.554,0.12,2.264,0.36c0.709,0.24,1.329,0.605,1.859,1.094
			c0.53,0.49,0.945,1.119,1.244,1.888c0.3,0.769,0.45,1.675,0.45,2.713c0,1.019-0.17,1.923-0.51,2.712
			c-0.34,0.789-0.795,1.454-1.364,1.993c-0.57,0.54-1.214,0.949-1.934,1.229c-0.72,0.279-1.45,0.42-2.189,0.42
			c-0.76,0-1.439-0.08-2.039-0.24c-0.6-0.16-1.139-0.36-1.619-0.6c-0.48-0.239-0.904-0.514-1.274-0.823
			c-0.37-0.31-0.705-0.615-1.005-0.914L430.669,62.08z"/>
		<path fill="#512417" d="M443.624,49.612c0.639-0.54,1.119-1.079,1.439-1.619c0.32-0.54,0.48-1.229,0.48-2.068
			c-0.04,0.02-0.12,0.03-0.24,0.03c-0.24,0-0.47-0.075-0.69-0.225c-0.22-0.15-0.33-0.394-0.33-0.734c0-0.34,0.095-0.594,0.285-0.764
			c0.19-0.169,0.435-0.255,0.735-0.255c0.34,0,0.615,0.145,0.825,0.435c0.21,0.29,0.315,0.724,0.315,1.304
			c0,1.019-0.21,1.883-0.63,2.592c-0.419,0.709-0.989,1.324-1.709,1.843L443.624,49.612z"/>
	</g>
	<g id="Shape_3">
		<g>
			<path fill-rule="evenodd" clip-rule="evenodd" fill="#F0761D" d="M50.4,33.6V16.8H33.6v16.8H50.4z M33.6,50.4v16.8h16.8V50.4
				H33.6z M50.4,0v16.8h16.8v50.4H50.4V84H84V0H50.4z M16.8,16.8h16.8V0H0v84h33.6V67.2H16.8V16.8z"/>
		</g>
	</g>
	<g>
		<g>
			<path fill="#512417" d="M158.664,15.506v-0.204c1.971-0.51,3.458-1.418,4.46-2.726c1.002-1.307,1.504-2.844,1.504-4.611
				c0-2.819-1.003-4.882-3.008-6.19c-2.005-1.307-4.707-1.961-8.105-1.961h-9.075V33.39h9.737c1.903,0,3.619-0.204,5.149-0.611
				c1.529-0.408,2.837-1.019,3.925-1.835c1.087-0.815,1.928-1.834,2.523-3.057c0.594-1.223,0.892-2.65,0.892-4.28
				c0-2.344-0.714-4.186-2.141-5.528C163.099,16.738,161.145,15.881,158.664,15.506z M146.786,1.75h6.066
				c3.092,0,5.437,0.484,7.035,1.452c1.597,0.968,2.396,2.539,2.396,4.713c0,2.242-0.748,3.915-2.243,5.018
				c-1.496,1.104-3.977,1.656-7.443,1.656h-5.811V1.75z M161.493,29.568c-1.92,1.257-4.562,1.885-7.927,1.885h-6.78V16.474h6.78
				c3.467,0,6.134,0.586,8.004,1.758c1.869,1.172,2.804,2.964,2.804,5.375C164.374,26.325,163.413,28.312,161.493,29.568z
				 M130.372-0.186h-2.804l-16.262,18.648h-0.102V-0.186h-2.345V33.39h2.345V21.824l6.831-7.795l11.113,19.361h2.702l-12.184-21.144
				L130.372-0.186z M134.756,33.39h2.345V-0.186h-2.345V33.39z M191.698-0.186v20.43c0,2.242-0.255,4.101-0.765,5.579
				c-0.51,1.478-1.181,2.667-2.014,3.567c-0.833,0.901-1.802,1.537-2.906,1.911c-1.105,0.374-2.268,0.56-3.492,0.56
				c-1.19,0-2.319-0.186-3.39-0.56c-1.071-0.374-2.014-1.01-2.829-1.911c-0.816-0.899-1.471-2.089-1.963-3.567
				c-0.493-1.478-0.739-3.337-0.739-5.579v-20.43h-2.345V20.5c0,2.616,0.314,4.789,0.943,6.521c0.628,1.732,1.469,3.117,2.523,4.153
				c1.053,1.036,2.259,1.766,3.619,2.191c1.359,0.424,2.753,0.637,4.18,0.637c1.461,0,2.872-0.212,4.232-0.637
				c1.359-0.424,2.565-1.155,3.62-2.191c1.053-1.036,1.903-2.42,2.549-4.153c0.645-1.732,0.969-3.906,0.969-6.521V-0.186H191.698z"
				/>
		</g>
	</g>
</g>
</svg>
