<?xml version="1.0" encoding="UTF-8" standalone="no"?>
<!-- Created with Inkscape (http://www.inkscape.org/) -->

<svg
   xmlns:dc="http://purl.org/dc/elements/1.1/"
   xmlns:cc="http://creativecommons.org/ns#"
   xmlns:rdf="http://www.w3.org/1999/02/22-rdf-syntax-ns#"
   xmlns:svg="http://www.w3.org/2000/svg"
   xmlns="http://www.w3.org/2000/svg"
   xmlns:sodipodi="http://sodipodi.sourceforge.net/DTD/sodipodi-0.dtd"
   xmlns:inkscape="http://www.inkscape.org/namespaces/inkscape"
   width="87"
   height="36"
   viewBox="0 0 87.000001 36.000001"
   id="svg4760"
   version="1.1"
   inkscape:version="0.91 r13725"
   sodipodi:docname="hackathon_social.svg">
  <defs
     id="defs4762" />
  <sodipodi:namedview
     id="base"
     pagecolor="#ffffff"
     bordercolor="#666666"
     borderopacity="1.0"
     inkscape:pageopacity="0.0"
     inkscape:pageshadow="2"
     inkscape:zoom="5.6"
     inkscape:cx="31.773271"
     inkscape:cy="33.982342"
     inkscape:document-units="px"
     inkscape:current-layer="layer1"
     showgrid="false"
     units="px"
     inkscape:showpageshadow="false"
     inkscape:window-width="2560"
     inkscape:window-height="1422"
     inkscape:window-x="0"
     inkscape:window-y="0"
     inkscape:window-maximized="1" />
  <metadata
     id="metadata4765">
    <rdf:RDF>
      <cc:Work
         rdf:about="">
        <dc:format>image/svg+xml</dc:format>
        <dc:type
           rdf:resource="http://purl.org/dc/dcmitype/StillImage" />
        <dc:title></dc:title>
      </cc:Work>
    </rdf:RDF>
  </metadata>
  <g
     inkscape:label="Layer 1"
     inkscape:groupmode="layer"
     id="layer1"
     transform="translate(0,-1016.3622)">
    <path
       d="m 68.593,1016.6632 c -9.687,0 -17.54,7.927 -17.54,17.705 0,9.778 7.853,17.705 17.54,17.705 9.687,0 17.54,-7.927 17.54,-17.705 0.001,-9.778 -7.852,-17.705 -17.54,-17.705 z m -1.507,21.543 c 0.417,0.434 0.923,0.651 1.517,0.651 l 4.283,0 c 0.594,0 1.105,0.222 1.529,0.664 0.426,0.442 0.637,0.972 0.637,1.591 0,0.619 -0.212,1.15 -0.637,1.591 -0.425,0.442 -0.933,0.663 -1.528,0.663 l -4.282,0 c -1.783,0 -3.307,-0.659 -4.573,-1.978 -1.266,-1.319 -1.899,-2.906 -1.899,-4.764 l 0,-8.999 c 0,-0.636 0.211,-1.172 0.633,-1.606 0.421,-0.433 0.937,-0.65 1.544,-0.65 0.59,0 1.098,0.221 1.518,0.664 0.422,0.441 0.634,0.971 0.634,1.591 l 0,2.254 6.418,0 c 0.597,0 1.107,0.221 1.534,0.663 0.427,0.442 0.639,0.973 0.639,1.592 0,0.618 -0.212,1.149 -0.638,1.591 -0.425,0.442 -0.935,0.663 -1.528,0.663 l -6.425,0 0,2.235 c 0,0.621 0.208,1.149 0.624,1.584 z m -49.258,-21.834 c -9.831,0 -17.828,8.073 -17.828,17.995 0,9.922 7.998,17.995 17.828,17.995 9.83,0 17.828,-8.074 17.828,-17.995 10e-4,-9.922 -7.996,-17.995 -17.828,-17.995 z m 4.434,18.629 -2.9,0 c 0,4.678 0,10.435 0,10.435 l -4.298,0 c 0,0 0,-5.702 0,-10.435 l -2.043,0 0,-3.688 2.043,0 0,-2.385 c 0,-1.708 0.804,-4.378 4.338,-4.378 l 3.185,0.012 0,3.58 c 0,0 -1.935,0 -2.312,0 -0.376,0 -0.911,0.19 -0.911,1.005 l 0,2.167 3.275,0 -0.377,3.687 z"
       id="path23"
       inkscape:connector-curvature="0"
       style="fill:#fef5df;fill-opacity:1" />
  </g>
</svg>
