<svg
     xmlns:dc="http://purl.org/dc/elements/1.1/"
     xmlns:cc="http://creativecommons.org/ns#"
     xmlns:rdf="http://www.w3.org/1999/02/22-rdf-syntax-ns#"
     xmlns:svg="http://www.w3.org/2000/svg"
     xmlns="http://www.w3.org/2000/svg"
     xml:space="preserve"
     enable-background="new 0 0 446.442 84"
     viewBox="0 0 195.00001 37"
     height="37"
     width="195"
     y="0px"
     x="0px"
     id="LOGO_1_"
     version="1.1"><metadata
         id="metadata35"><rdf:RDF><cc:Work
                 rdf:about=""><dc:format>image/svg+xml</dc:format><dc:type
                     rdf:resource="http://purl.org/dc/dcmitype/StillImage" /><dc:title></dc:title></cc:Work></rdf:RDF></metadata><defs
         id="defs33" /><g
         transform="matrix(0.43678588,0,0,0.43678588,0,0.3099804)"
         id="g4209"><path
             style="fill:#512417"
             id="path8"
             d="m 389.037,45.349 0,13.327 c 0,2.24 0.125,4.597 0.377,7.068 0.251,2.473 0.473,4.714 0.667,6.722 l -0.232,0 -3.711,-8.344 -9.856,-18.773 -8.754,0 0,37.778 8.116,0 0,-13.385 c 0,-2.239 -0.126,-4.557 -0.377,-6.953 -0.252,-2.394 -0.474,-4.635 -0.666,-6.721 l 0.232,0 3.71,8.228 9.856,18.831 8.754,0 0,-37.778 -8.116,0 z m -72.874,14.544 -13.045,0 0,-14.544 -8.522,0 0,37.778 8.522,0 0,-15.76 13.045,0 0,15.761 8.58,0 0,-37.779 -8.58,0 0,14.544 z m -186.218,0 -13.045,0 0,-14.544 -8.522,0 0,37.778 8.522,0 0,-15.76 13.045,0 0,15.761 8.58,0 0,-37.779 -8.58,0 0,14.544 z m 64.527,15.644 c -1.159,0.618 -2.513,0.927 -4.058,0.927 -2.782,0 -5.006,-1.072 -6.667,-3.216 -1.662,-2.144 -2.493,-5.167 -2.493,-9.068 0,-1.893 0.241,-3.592 0.724,-5.099 0.483,-1.506 1.15,-2.781 2,-3.824 0.85,-1.043 1.845,-1.844 2.986,-2.405 1.139,-0.56 2.367,-0.84 3.681,-0.84 1.314,0 2.464,0.252 3.45,0.753 0.985,0.502 1.961,1.198 2.928,2.086 l 4.696,-5.273 c -1.276,-1.313 -2.87,-2.462 -4.783,-3.448 -1.913,-0.985 -4.049,-1.478 -6.406,-1.478 -2.435,0 -4.745,0.445 -6.928,1.333 -2.184,0.889 -4.097,2.183 -5.739,3.882 -1.643,1.701 -2.948,3.776 -3.914,6.229 -0.966,2.454 -1.449,5.244 -1.449,8.373 0,3.168 0.464,5.959 1.392,8.373 0.927,2.415 2.203,4.432 3.826,6.055 1.623,1.622 3.517,2.85 5.681,3.68 2.164,0.83 4.464,1.246 6.899,1.246 2.357,0 4.551,-0.463 6.58,-1.391 2.029,-0.927 3.836,-2.317 5.421,-4.172 l -4.696,-5.157 c -0.928,1.005 -1.972,1.817 -3.131,2.434 z m -42.902,-30.188 -11.827,37.778 8.696,0 2.319,-8.981 11.537,0 2.319,8.981 9.044,0 -11.827,-37.778 -10.261,0 z m 0.927,22.134 0.928,-3.476 c 0.541,-1.893 1.053,-3.892 1.537,-5.997 0.482,-2.105 0.957,-4.162 1.42,-6.171 l 0.232,0 c 0.502,1.97 1.004,4.018 1.507,6.142 0.502,2.125 1.023,4.134 1.565,6.026 l 0.87,3.476 -8.059,0 z m 109.748,-14.949 10.378,0 0,30.594 8.58,0 0,-30.594 10.377,0 0,-7.185 -29.336,0 0,7.185 z m 96.298,-2.782 c -1.507,-1.66 -3.315,-2.926 -5.421,-3.795 -2.107,-0.869 -4.435,-1.304 -6.986,-1.304 -2.551,0 -4.88,0.435 -6.986,1.304 -2.107,0.869 -3.914,2.125 -5.421,3.766 -1.507,1.642 -2.677,3.67 -3.507,6.084 -0.832,2.415 -1.247,5.167 -1.247,8.257 0,3.091 0.415,5.853 1.247,8.286 0.83,2.434 2,4.5 3.507,6.2 1.507,1.701 3.314,3.004 5.421,3.911 2.106,0.907 4.435,1.362 6.986,1.362 2.551,0 4.879,-0.455 6.986,-1.362 2.106,-0.907 3.914,-2.211 5.421,-3.911 1.507,-1.699 2.676,-3.766 3.507,-6.2 0.831,-2.433 1.247,-5.195 1.247,-8.286 0,-3.051 -0.416,-5.784 -1.247,-8.199 -0.832,-2.413 -2,-4.451 -3.507,-6.113 z m -6.262,23.38 c -1.507,2.221 -3.557,3.332 -6.146,3.332 -2.59,0 -4.638,-1.11 -6.145,-3.332 -1.507,-2.221 -2.261,-5.244 -2.261,-9.068 0,-3.785 0.754,-6.74 2.261,-8.865 1.507,-2.124 3.556,-3.187 6.145,-3.187 2.589,0 4.638,1.063 6.146,3.187 1.507,2.125 2.261,5.08 2.261,8.865 0,3.825 -0.754,6.847 -2.261,9.068 z M 244.273,45.349 233.885,78.53 223.111,60.414 l 11.421,-15.065 -9.392,0 -11.248,15.471 -0.232,0 0,-15.471 -8.522,0 0,37.778 8.522,0 0,-10.14 4.406,-5.794 9.218,15.934 13.857,0 2.319,-8.981 11.537,0 2.319,8.981 9.044,0 -11.827,-37.778 -10.26,0 z m 0.927,22.134 0.928,-3.476 c 0.541,-1.893 1.053,-3.892 1.537,-5.997 0.482,-2.105 0.957,-4.162 1.42,-6.171 l 0.232,0 c 0.502,1.97 1.004,4.018 1.507,6.142 0.502,2.125 1.023,4.134 1.565,6.026 l 0.87,3.476 -8.059,0 z" /><path
             d="m 411.059,65.317 c -1.819,0 -3.204,-0.869 -4.153,-2.608 -0.95,-1.739 -1.424,-4.206 -1.424,-7.403 0,-3.197 0.475,-5.644 1.424,-7.342 0.949,-1.698 2.334,-2.548 4.153,-2.548 1.819,0 3.203,0.85 4.153,2.548 0.95,1.698 1.425,4.146 1.425,7.342 0,3.198 -0.475,5.665 -1.425,7.403 -0.95,1.739 -2.334,2.608 -4.153,2.608 z m 0,-0.84 c 1.419,0 2.544,-0.783 3.374,-2.352 0.829,-1.569 1.244,-3.841 1.244,-6.819 0,-2.977 -0.415,-5.23 -1.244,-6.758 -0.83,-1.529 -1.954,-2.293 -3.374,-2.293 -1.419,0 -2.544,0.764 -3.374,2.293 -0.83,1.528 -1.244,3.781 -1.244,6.758 0,2.978 0.415,5.25 1.244,6.819 0.829,1.569 1.954,2.352 3.374,2.352 z"
             id="path12"
             style="fill:#512417" /><path
             d="m 419.215,64.118 4.558,0 0,-16.544 -3.418,0 0,-0.66 c 0.76,-0.12 1.434,-0.28 2.024,-0.48 0.59,-0.2 1.095,-0.42 1.515,-0.66 l 0.78,0 0,18.343 4.258,0 0,0.839 -9.716,0 0,-0.838 z"
             id="path14"
             style="fill:#512417" /><path
             d="m 430.669,62.08 c 0.28,0.3 0.589,0.594 0.93,0.884 0.34,0.29 0.724,0.544 1.154,0.764 0.43,0.22 0.915,0.4 1.455,0.54 0.54,0.14 1.159,0.21 1.859,0.21 0.66,0 1.29,-0.129 1.889,-0.389 0.6,-0.26 1.129,-0.629 1.589,-1.109 0.46,-0.479 0.825,-1.054 1.095,-1.723 0.27,-0.669 0.405,-1.414 0.405,-2.233 0,-1.619 -0.445,-2.892 -1.334,-3.821 -0.89,-0.929 -2.084,-1.394 -3.584,-1.394 -0.76,0 -1.415,0.12 -1.964,0.36 -0.55,0.24 -1.115,0.56 -1.695,0.959 l -0.78,-0.48 0.72,-8.872 8.576,0 0,0.84 -7.736,0 -0.66,7.373 c 0.52,-0.32 1.059,-0.58 1.619,-0.779 0.56,-0.2 1.219,-0.3 1.979,-0.3 0.799,0 1.554,0.12 2.264,0.36 0.709,0.24 1.329,0.605 1.859,1.094 0.53,0.49 0.945,1.119 1.244,1.888 0.3,0.769 0.45,1.675 0.45,2.713 0,1.019 -0.17,1.923 -0.51,2.712 -0.34,0.789 -0.795,1.454 -1.364,1.993 -0.57,0.54 -1.214,0.949 -1.934,1.229 -0.72,0.279 -1.45,0.42 -2.189,0.42 -0.76,0 -1.439,-0.08 -2.039,-0.24 -0.6,-0.16 -1.139,-0.36 -1.619,-0.6 -0.48,-0.239 -0.904,-0.514 -1.274,-0.823 -0.37,-0.31 -0.705,-0.615 -1.005,-0.914 l 0.6,-0.662 z"
             id="path16"
             style="fill:#512417" /><path
             d="m 443.624,49.612 c 0.639,-0.54 1.119,-1.079 1.439,-1.619 0.32,-0.54 0.48,-1.229 0.48,-2.068 -0.04,0.02 -0.12,0.03 -0.24,0.03 -0.24,0 -0.47,-0.075 -0.69,-0.225 -0.22,-0.15 -0.33,-0.394 -0.33,-0.734 0,-0.34 0.095,-0.594 0.285,-0.764 0.19,-0.169 0.435,-0.255 0.735,-0.255 0.34,0 0.615,0.145 0.825,0.435 0.21,0.29 0.315,0.724 0.315,1.304 0,1.019 -0.21,1.883 -0.63,2.592 -0.419,0.709 -0.989,1.324 -1.709,1.843 l -0.48,-0.539 z"
             id="path18"
             style="fill:#512417" /><path
             style="clip-rule:evenodd;fill:#f0761d;fill-rule:evenodd"
             id="path23"
             d="m 50.4,33.6 0,-16.8 -16.8,0 0,16.8 16.8,0 z m -16.8,16.8 0,16.8 16.8,0 0,-16.8 -16.8,0 z M 50.4,0 l 0,16.8 16.8,0 0,50.4 -16.8,0 0,16.8 L 84,84 84,0 50.4,0 Z M 16.8,16.8 33.6,16.8 33.6,0 0,0 l 0,84 33.6,0 0,-16.8 -16.8,0 0,-50.4 z" /><path
             style="fill:#512417"
             id="path29"
             d="m 158.664,15.506 0,-0.204 c 1.971,-0.51 3.458,-1.418 4.46,-2.726 1.002,-1.307 1.504,-2.844 1.504,-4.611 0,-2.819 -1.003,-4.882 -3.008,-6.19 -2.005,-1.307 -4.707,-1.961 -8.105,-1.961 l -9.075,0 0,33.576 9.737,0 c 1.903,0 3.619,-0.204 5.149,-0.611 1.529,-0.408 2.837,-1.019 3.925,-1.835 1.087,-0.815 1.928,-1.834 2.523,-3.057 0.594,-1.223 0.892,-2.65 0.892,-4.28 0,-2.344 -0.714,-4.186 -2.141,-5.528 -1.426,-1.341 -3.38,-2.198 -5.861,-2.573 z M 146.786,1.75 l 6.066,0 c 3.092,0 5.437,0.484 7.035,1.452 1.597,0.968 2.396,2.539 2.396,4.713 0,2.242 -0.748,3.915 -2.243,5.018 -1.496,1.104 -3.977,1.656 -7.443,1.656 l -5.811,0 0,-12.839 z m 14.707,27.818 c -1.92,1.257 -4.562,1.885 -7.927,1.885 l -6.78,0 0,-14.979 6.78,0 c 3.467,0 6.134,0.586 8.004,1.758 1.869,1.172 2.804,2.964 2.804,5.375 0,2.718 -0.961,4.705 -2.881,5.961 z m -31.121,-29.754 -2.804,0 -16.262,18.648 -0.102,0 0,-18.648 -2.345,0 0,33.576 2.345,0 0,-11.566 6.831,-7.795 11.113,19.361 2.702,0 -12.184,-21.144 10.706,-12.432 z m 4.384,33.576 2.345,0 0,-33.576 -2.345,0 0,33.576 z m 56.942,-33.576 0,20.43 c 0,2.242 -0.255,4.101 -0.765,5.579 -0.51,1.478 -1.181,2.667 -2.014,3.567 -0.833,0.901 -1.802,1.537 -2.906,1.911 -1.105,0.374 -2.268,0.56 -3.492,0.56 -1.19,0 -2.319,-0.186 -3.39,-0.56 -1.071,-0.374 -2.014,-1.01 -2.829,-1.911 -0.816,-0.899 -1.471,-2.089 -1.963,-3.567 -0.493,-1.478 -0.739,-3.337 -0.739,-5.579 l 0,-20.43 -2.345,0 0,20.686 c 0,2.616 0.314,4.789 0.943,6.521 0.628,1.732 1.469,3.117 2.523,4.153 1.053,1.036 2.259,1.766 3.619,2.191 1.359,0.424 2.753,0.637 4.18,0.637 1.461,0 2.872,-0.212 4.232,-0.637 1.359,-0.424 2.565,-1.155 3.62,-2.191 1.053,-1.036 1.903,-2.42 2.549,-4.153 0.645,-1.732 0.969,-3.906 0.969,-6.521 l 0,-20.686 -2.192,0 z" /></g></svg>
