<?xml version="1.0" encoding="utf-8"?>
<!-- Generator: Adobe Illustrator 17.0.0, SVG Export Plug-In . SVG Version: 6.00 Build 0)  -->
<!DOCTYPE svg PUBLIC "-//W3C//DTD SVG 1.1//EN" "http://www.w3.org/Graphics/SVG/1.1/DTD/svg11.dtd">
<svg version="1.1" id="Layer_1" xmlns="http://www.w3.org/2000/svg" xmlns:xlink="http://www.w3.org/1999/xlink" x="0px" y="0px"
	 width="960px" height="560px" viewBox="0 0 960 560" enable-background="new 0 0 960 560" xml:space="preserve">
<g>
	<g>
		<path fill="#D7C5AB" d="M366.764,154.255l-11.002-6.481v4.437H60.763c-2.206,0-4-1.794-4-4v-92c0-2.206,1.794-4,4-4h306v-4h-306
			c-4.4,0-8,3.6-8,8v92c0,4.4,3.6,8,8,8h294.999v4.526L366.764,154.255z"/>
	</g>
</g>
<path fill="#F0761D" d="M461.078,67.813l11.125,22.646l24.876,3.631l-18,17.628l4.249,24.89l-22.25-11.752l-22.25,11.752
	l4.249-24.89L425.077,94.09l24.876-3.631L461.078,67.813z"/>
<path fill-rule="evenodd" clip-rule="evenodd" fill="#F0761D" d="M550.474,102.21h12v12h-12V102.21z"/>
<g>
	<g>
		<path fill="#F0761D" d="M52.763,239.576h46.27v-47h-46.27V239.576z M60.715,200.652h30.366v30.845H60.715V200.652z
			 M119.073,215.475c0.355,0,0.687-0.13,0.992-0.391c0.305-0.261,0.458-0.55,0.458-0.872c0-0.14-0.05-0.291-0.147-0.452
			l-7.052-10.833l6.045-7.674c0.138-0.16,0.206-0.34,0.206-0.543c0-0.298-0.156-0.591-0.473-0.871
			c-0.314-0.282-0.631-0.423-0.948-0.423c-0.314,0-0.564,0.122-0.737,0.364l-7.942,10.471v-9.961c0-0.281-0.123-0.497-0.37-0.647
			c-0.25-0.151-0.537-0.227-0.875-0.227c-0.338,0-0.627,0.076-0.873,0.227c-0.248,0.151-0.372,0.367-0.372,0.647v20.223
			c0,0.282,0.123,0.501,0.372,0.662c0.246,0.161,0.536,0.24,0.873,0.24c0.338,0,0.625-0.079,0.875-0.24
			c0.247-0.161,0.37-0.38,0.37-0.662v-6.652l2.19-2.797l6.489,9.9C118.371,215.307,118.679,215.475,119.073,215.475z
			 M122.775,201.151c-0.335,0-0.622,0.081-0.86,0.24c-0.235,0.161-0.352,0.373-0.352,0.632v12.49c0,0.24,0.117,0.45,0.352,0.632
			c0.238,0.18,0.526,0.27,0.86,0.27c0.335,0,0.628-0.095,0.875-0.286c0.247-0.189,0.37-0.395,0.37-0.616v-12.49
			c0-0.259-0.117-0.471-0.355-0.632C123.427,201.232,123.13,201.151,122.775,201.151z M122.775,197.24
			c0.414,0,0.769-0.146,1.066-0.437c0.297-0.289,0.443-0.626,0.443-1.008c0-0.38-0.147-0.711-0.443-0.993
			c-0.297-0.281-0.652-0.421-1.066-0.421c-0.432,0-0.798,0.14-1.095,0.421c-0.297,0.282-0.446,0.613-0.446,0.993
			c0,0.382,0.156,0.719,0.461,1.008C122.003,197.094,122.364,197.24,122.775,197.24z M132.552,215.416
			c0.314,0,0.57-0.115,0.769-0.344c0.2-0.229,0.297-0.499,0.297-0.814c0-0.315-0.094-0.58-0.285-0.798
			c-0.185-0.221-0.446-0.331-0.781-0.331h-0.919c-0.91,0-1.545-0.173-1.911-0.522c-0.367-0.348-0.546-0.95-0.546-1.806v-7.693h3.732
			c0.214,0,0.396-0.095,0.532-0.286c0.138-0.19,0.208-0.416,0.208-0.677c0-0.261-0.07-0.492-0.208-0.692
			c-0.135-0.2-0.317-0.301-0.532-0.301h-3.732v-5.778c0-0.24-0.129-0.444-0.388-0.616c-0.255-0.17-0.543-0.255-0.86-0.255
			c-0.294,0-0.572,0.085-0.828,0.255c-0.256,0.171-0.385,0.376-0.385,0.616v15.499c0,3.03,1.638,4.544,4.918,4.544H132.552z
			 M144.904,213.521c0-0.282-0.103-0.552-0.311-0.813c-0.209-0.261-0.467-0.392-0.784-0.392c-0.103,0-0.458,0.176-1.069,0.528
			c-0.611,0.351-1.33,0.526-2.161,0.526c-2.428,0-3.644-1.188-3.644-3.561v-2.991c0-1.138,0.305-2.014,0.919-2.633
			c0.614-0.617,1.509-0.926,2.695-0.926c0.807,0,1.515,0.172,2.117,0.512c0.602,0.341,0.943,0.511,1.022,0.511
			c0.276,0,0.52-0.136,0.725-0.407c0.211-0.27,0.314-0.546,0.314-0.826c0-0.502-0.423-0.972-1.26-1.415
			c-0.84-0.441-1.873-0.662-3.095-0.662c-1.938,0-3.403,0.541-4.401,1.625c-0.998,1.083-1.495,2.487-1.495,4.212v3.008
			c0,1.747,0.496,3.157,1.495,4.23c0.998,1.074,2.472,1.609,4.43,1.609c1.263,0,2.331-0.23,3.197-0.692
			C144.47,214.505,144.904,214.021,144.904,213.521z M152.932,200.971c-0.907,0-1.691,0.224-2.355,0.671
			c-0.661,0.447-1.16,0.996-1.494,1.646v-9.84c0-0.259-0.117-0.47-0.355-0.631c-0.238-0.161-0.537-0.242-0.89-0.242
			c-0.358,0-0.646,0.081-0.872,0.242c-0.226,0.161-0.343,0.37-0.343,0.631v21.067c0,0.24,0.117,0.452,0.355,0.631
			c0.241,0.18,0.523,0.27,0.86,0.27c0.335,0,0.625-0.095,0.875-0.285c0.247-0.191,0.37-0.395,0.37-0.614v-7.747
			c0-1.039,0.326-1.886,0.978-2.536c0.652-0.65,1.401-0.975,2.249-0.975c0.91,0,1.7,0.359,2.369,1.081
			c0.672,0.719,1.007,1.531,1.007,2.43v7.747c0,0.28,0.123,0.5,0.373,0.659c0.247,0.161,0.529,0.24,0.846,0.24
			c0.335,0,0.626-0.079,0.872-0.24c0.247-0.161,0.37-0.38,0.37-0.662v-7.766c0-1.583-0.52-2.942-1.556-4.077
			C155.557,201.539,154.335,200.971,152.932,200.971z M166.144,200.971c-1.621,0-3.007,0.562-4.163,1.685
			c-1.154,1.124-1.729,2.457-1.729,4.002v3.158c0,1.747,0.611,3.157,1.835,4.23c1.224,1.074,2.804,1.609,4.739,1.609
			c1.324,0,2.434-0.24,3.336-0.722c0.896-0.48,1.348-0.951,1.348-1.414c0-0.261-0.103-0.516-0.297-0.766
			c-0.2-0.252-0.435-0.379-0.714-0.379c-0.176,0-0.414,0.097-0.711,0.288c-0.297,0.191-0.684,0.386-1.169,0.586
			c-0.484,0.201-1.051,0.301-1.703,0.301c-1.245,0-2.258-0.331-3.039-0.993c-0.778-0.663-1.168-1.545-1.168-2.65v-0.902h6.486
			c0.417,0,0.746-0.021,0.995-0.061c0.247-0.04,0.511-0.137,0.799-0.289c0.285-0.152,0.499-0.406,0.637-0.762
			c0.138-0.355,0.206-0.826,0.206-1.415c0-1.576-0.561-2.887-1.688-3.935C169.018,201.496,167.685,200.971,166.144,200.971z
			 M169.227,207.094c-0.179,0.131-0.526,0.197-1.039,0.197h-5.479v-1.084c0-0.923,0.335-1.7,1.007-2.332
			c0.672-0.632,1.471-0.947,2.399-0.947c0.948,0,1.747,0.341,2.402,1.023c0.652,0.682,0.975,1.473,0.975,2.378
			C169.491,206.707,169.403,206.964,169.227,207.094z M185.34,206.748c0-1.583-0.517-2.942-1.556-4.077
			c-1.036-1.132-2.255-1.7-3.658-1.7c-0.928,0-1.741,0.224-2.443,0.671c-0.702,0.447-1.21,0.996-1.524,1.646v-1.251
			c0-0.245-0.114-0.453-0.34-0.626c-0.226-0.173-0.49-0.259-0.787-0.259c-0.355,0-0.646,0.081-0.872,0.24
			c-0.229,0.161-0.341,0.373-0.341,0.632v12.49c0,0.24,0.118,0.45,0.355,0.632c0.238,0.18,0.52,0.27,0.857,0.27
			c0.317,0,0.602-0.095,0.857-0.285c0.258-0.191,0.388-0.395,0.388-0.614v-7.747c0-1.039,0.326-1.886,0.978-2.536
			c0.652-0.65,1.404-0.975,2.252-0.975c0.907,0,1.697,0.359,2.37,1.081c0.672,0.719,1.007,1.531,1.007,2.43v7.747
			c0,0.28,0.123,0.5,0.37,0.659c0.25,0.161,0.528,0.24,0.843,0.24c0.338,0,0.628-0.079,0.875-0.24c0.247-0.161,0.37-0.38,0.37-0.662
			V206.748z M203.117,203.5c0.787-0.34,1.406-0.936,1.85-1.789c0.443-0.854,0.664-1.901,0.664-3.146c0-1.944-0.534-3.288-1.612-4.03
			c-1.078-0.743-2.543-1.115-4.401-1.115h-5.096c-0.296,0-0.559,0.085-0.785,0.242c-0.228,0.162-0.341,0.382-0.341,0.665v20.222
			c0,0.24,0.103,0.444,0.313,0.617c0.208,0.167,0.479,0.256,0.813,0.256h5.777c1.779,0,3.198-0.502,4.266-1.508
			c1.066-1.003,1.603-2.587,1.603-4.754v-0.543c0-1.443-0.258-2.556-0.775-3.342C204.882,204.495,204.122,203.904,203.117,203.5z
			 M195.886,195.706h3.611c2.434,0,3.647,1.074,3.647,3.219c0,1.226-0.285,2.12-0.857,2.68c-0.576,0.561-1.474,0.844-2.698,0.844
			h-3.702V195.706z M203.678,209.007c0,2.748-1.265,4.124-3.794,4.124h-3.999v-8.578h3.999c1.245,0,2.187,0.313,2.83,0.933
			c0.64,0.62,0.963,1.625,0.963,3.008V209.007z M218.814,201.156c-0.335,0-0.625,0.088-0.872,0.267
			c-0.247,0.182-0.37,0.382-0.37,0.601v7.836c0,0.922-0.335,1.736-1.007,2.445c-0.672,0.712-1.462,1.068-2.369,1.068
			c-0.931,0-1.732-0.362-2.402-1.084c-0.669-0.72-1.007-1.528-1.007-2.429v-7.805c0-0.219-0.124-0.426-0.37-0.617
			c-0.247-0.188-0.529-0.282-0.843-0.282c-0.338,0-0.628,0.088-0.878,0.268c-0.247,0.18-0.37,0.391-0.37,0.63v7.826
			c0,1.545,0.579,2.895,1.735,4.049c1.157,1.151,2.531,1.733,4.134,1.733c1.577,0,2.945-0.582,4.102-1.733
			c1.154-1.154,1.732-2.504,1.732-4.049v-7.854c0-0.243-0.115-0.447-0.341-0.617C219.463,201.239,219.172,201.156,218.814,201.156z
			 M232.56,192.576c-0.355,0-0.652,0.083-0.89,0.242c-0.238,0.163-0.355,0.374-0.355,0.632v9.842
			c-0.355-0.649-0.869-1.199-1.541-1.646c-0.669-0.447-1.45-0.673-2.34-0.673c-1.442,0-2.684,0.568-3.732,1.701
			c-1.045,1.135-1.571,2.49-1.571,4.077v3.067c0,1.526,0.526,2.88,1.571,4.064c1.048,1.188,2.261,1.78,3.643,1.78
			c0.887,0,1.709-0.236,2.457-0.702c0.755-0.471,1.295-1.026,1.63-1.679v1.224c0,0.24,0.115,0.455,0.344,0.638
			c0.226,0.183,0.487,0.277,0.784,0.277c0.338,0,0.62-0.094,0.857-0.271c0.238-0.183,0.358-0.394,0.358-0.634V193.45
			c0-0.261-0.117-0.47-0.344-0.632C233.206,192.659,232.919,192.576,232.56,192.576z M231.315,210.619
			c0,0.498-0.346,1.081-1.036,1.749c-0.69,0.67-1.471,1.005-2.34,1.005c-0.89,0-1.671-0.367-2.34-1.094
			c-0.672-0.728-1.01-1.549-1.01-2.465v-3.052c0-0.901,0.338-1.706,1.01-2.423c0.669-0.717,1.462-1.078,2.372-1.078
			c0.884,0,1.665,0.324,2.337,0.974c0.672,0.649,1.007,1.488,1.007,2.528V210.619z M240.796,200.972c-1.01,0-1.964,0.177-2.86,0.528
			c-0.898,0.35-1.348,0.757-1.348,1.22c0,0.298,0.085,0.586,0.253,0.856c0.167,0.27,0.391,0.406,0.664,0.406
			c0.062,0,0.405-0.152,1.039-0.45c0.631-0.303,1.362-0.452,2.19-0.452c1.086,0,1.903,0.374,2.446,1.123
			c0.543,0.749,0.813,1.625,0.813,2.632v0.64h-1.418c-2.252,0-3.973,0.308-5.156,0.926c-1.189,0.614-1.779,1.712-1.779,3.289
			c0,1.293,0.373,2.282,1.11,2.957c0.743,0.674,1.703,1.016,2.889,1.016c1.638,0,3.13-0.765,4.475-2.295v1.174
			c0,0.252,0.106,0.461,0.326,0.629c0.217,0.167,0.484,0.251,0.798,0.251c0.355,0,0.646-0.089,0.875-0.256
			c0.229-0.173,0.341-0.388,0.341-0.649v-7.705c0-1.664-0.461-3.054-1.377-4.168C244.158,201.532,242.728,200.972,240.796,200.972z
			 M243.994,210.593c0,0.711-0.388,1.408-1.169,2.087c-0.781,0.682-1.586,1.022-2.414,1.022c-0.693,0-1.245-0.194-1.662-0.582
			c-0.414-0.384-0.622-0.953-0.622-1.706c0-0.426,0.091-0.786,0.267-1.084c0.179-0.292,0.411-0.526,0.696-0.698
			c0.288-0.173,0.655-0.307,1.098-0.396c0.443-0.094,0.875-0.151,1.289-0.182c0.414-0.031,0.907-0.048,1.48-0.048h1.036V210.593z
			 M255.43,200.972c-0.91,0-1.709,0.225-2.399,0.673c-0.69,0.447-1.216,0.997-1.571,1.646v-1.251c0-0.264-0.109-0.479-0.326-0.641
			c-0.217-0.165-0.496-0.243-0.831-0.243s-0.617,0.078-0.843,0.24c-0.229,0.16-0.34,0.37-0.34,0.631v19.382
			c0,0.24,0.117,0.45,0.355,0.628c0.238,0.183,0.523,0.273,0.86,0.273c0.335,0,0.625-0.096,0.872-0.288
			c0.25-0.189,0.37-0.398,0.37-0.619v-8.122c0.338,0.674,0.866,1.235,1.589,1.696c0.719,0.455,1.515,0.686,2.381,0.686
			c1.386,0,2.598-0.592,3.646-1.78c1.045-1.184,1.568-2.538,1.568-4.064v-3.067c0-1.587-0.517-2.942-1.556-4.077
			C258.172,201.54,256.909,200.972,255.43,200.972z M258.301,209.813c0,0.915-0.338,1.737-1.019,2.465
			c-0.681,0.728-1.468,1.094-2.355,1.094c-0.872,0-1.644-0.336-2.328-1.005c-0.681-0.668-1.022-1.251-1.022-1.749v-3.857
			c0-1.039,0.329-1.879,0.995-2.528c0.658-0.65,1.427-0.974,2.296-0.974c0.928,0,1.732,0.361,2.414,1.078
			c0.681,0.717,1.019,1.522,1.019,2.423V209.813z M268.346,200.972c-1.621,0-3.007,0.562-4.163,1.685
			c-1.154,1.126-1.732,2.46-1.732,4.004v3.157c0,1.749,0.611,3.157,1.835,4.23c1.227,1.074,2.807,1.614,4.742,1.614
			c1.324,0,2.431-0.242,3.333-0.723c0.898-0.482,1.347-0.953,1.347-1.419c0-0.257-0.1-0.513-0.297-0.765
			c-0.197-0.251-0.432-0.376-0.711-0.376c-0.176,0-0.414,0.094-0.71,0.285c-0.297,0.191-0.684,0.385-1.169,0.589
			c-0.484,0.198-1.051,0.298-1.706,0.298c-1.242,0-2.255-0.33-3.036-0.992c-0.778-0.662-1.172-1.545-1.172-2.648v-0.904h6.489
			c0.414,0,0.746-0.021,0.992-0.06c0.246-0.04,0.514-0.139,0.801-0.291c0.285-0.152,0.496-0.403,0.637-0.759
			c0.135-0.357,0.208-0.828,0.208-1.418c0-1.576-0.567-2.887-1.691-3.937C271.22,201.496,269.887,200.972,268.346,200.972z
			 M271.428,207.096c-0.182,0.13-0.526,0.195-1.039,0.195h-5.482v-1.083c0-0.924,0.338-1.698,1.01-2.332
			c0.672-0.634,1.471-0.947,2.399-0.947c0.948,0,1.75,0.34,2.402,1.02c0.649,0.683,0.975,1.476,0.975,2.378
			C271.693,206.709,271.601,206.966,271.428,207.096z M282.418,207.829c-0.714-0.264-1.43-0.486-2.146-0.67
			c-0.722-0.183-1.33-0.437-1.826-0.759c-0.493-0.325-0.74-0.775-0.74-1.34c0-0.549,0.223-1.041,0.669-1.476
			c0.443-0.437,1.119-0.653,2.029-0.653c0.669,0,1.345,0.146,2.026,0.438c0.684,0.297,1.063,0.443,1.142,0.443
			c0.276,0,0.508-0.149,0.699-0.453c0.185-0.298,0.279-0.57,0.279-0.808c0-0.412-0.434-0.774-1.304-1.096
			c-0.869-0.319-1.826-0.482-2.871-0.482c-1.638,0-2.86,0.413-3.658,1.241c-0.802,0.825-1.201,1.806-1.201,2.936
			c0,0.936,0.247,1.685,0.74,2.253c0.493,0.568,1.095,0.974,1.806,1.217c0.713,0.245,1.424,0.466,2.134,0.671
			c0.708,0.203,1.312,0.503,1.806,0.898c0.496,0.395,0.743,0.929,0.743,1.596c0,0.547-0.223,1.005-0.667,1.369
			c-0.446,0.367-1.163,0.55-2.149,0.55c-0.751,0-1.403-0.121-1.955-0.361c-0.552-0.242-0.978-0.488-1.274-0.738
			c-0.296-0.252-0.523-0.377-0.678-0.377c-0.238,0-0.44,0.125-0.611,0.377c-0.167,0.251-0.252,0.507-0.252,0.77
			c0,0.54,0.476,1.059,1.424,1.551c0.948,0.492,2.091,0.738,3.438,0.738c1.556,0,2.772-0.362,3.641-1.074
			c0.869-0.717,1.304-1.693,1.304-2.927c0-1.011-0.247-1.837-0.74-2.478C283.728,208.543,283.129,208.091,282.418,207.829z
			 M292.668,213.131h-0.922c-0.907,0-1.542-0.177-1.908-0.523c-0.364-0.347-0.549-0.947-0.549-1.806v-7.695h3.734
			c0.214,0,0.393-0.094,0.532-0.283c0.141-0.191,0.208-0.417,0.208-0.677c0-0.259-0.068-0.492-0.208-0.693
			c-0.138-0.2-0.317-0.298-0.532-0.298h-3.734v-5.78c0-0.24-0.129-0.444-0.385-0.617c-0.255-0.167-0.543-0.256-0.857-0.256
			c-0.299,0-0.575,0.089-0.831,0.256c-0.256,0.173-0.385,0.377-0.385,0.617v15.496c0,3.03,1.638,4.548,4.915,4.548h0.922
			c0.317,0,0.57-0.115,0.769-0.346c0.197-0.229,0.297-0.502,0.297-0.816c0-0.314-0.097-0.583-0.282-0.799
			C293.264,213.242,293.006,213.131,292.668,213.131z M109.234,227.868h-1.906c-0.101,0-0.183,0.029-0.247,0.086
			c-0.064,0.059-0.096,0.129-0.096,0.21v6.885c0,0.096,0.042,0.171,0.127,0.225c0.084,0.055,0.183,0.083,0.297,0.083
			c0.115,0,0.214-0.028,0.298-0.083c0.084-0.054,0.127-0.129,0.127-0.225v-2.653h1.36c0.66,0,1.187-0.18,1.585-0.539
			c0.396-0.358,0.595-0.919,0.595-1.685v-0.093c0-0.764-0.196-1.324-0.585-1.679C110.398,228.045,109.879,227.868,109.234,227.868z
			 M110.526,230.224c0,0.485-0.116,0.848-0.348,1.091c-0.231,0.243-0.56,0.364-0.984,0.364h-1.36v-3.033h1.36
			c0.423,0,0.752,0.121,0.984,0.364c0.233,0.243,0.348,0.607,0.348,1.092V230.224z M113.823,230.439
			c-0.538,0-1.003,0.197-1.396,0.589c-0.394,0.393-0.59,0.852-0.59,1.378v1.044c0,0.526,0.198,0.989,0.595,1.388
			c0.396,0.4,0.861,0.6,1.391,0.6c0.532,0,0.997-0.201,1.397-0.605c0.4-0.403,0.6-0.864,0.6-1.383v-1.044
			c0-0.533-0.198-0.994-0.595-1.383C114.829,230.633,114.361,230.439,113.823,230.439z M114.984,233.448
			c0,0.313-0.115,0.593-0.344,0.84s-0.501,0.371-0.818,0.371c-0.309,0-0.577-0.122-0.806-0.366
			c-0.229-0.245-0.342-0.527-0.342-0.845v-1.039c0-0.305,0.112-0.58,0.337-0.824c0.225-0.245,0.496-0.368,0.811-0.368
			c0.317,0,0.589,0.122,0.818,0.368c0.229,0.244,0.344,0.519,0.344,0.824V233.448z M122.726,230.588
			c-0.113-0.073-0.231-0.108-0.352-0.108c-0.142,0-0.229,0.054-0.262,0.164l-1.231,3.473l-0.927-3.135
			c-0.048-0.136-0.155-0.205-0.323-0.205c-0.155,0-0.255,0.069-0.3,0.205l-0.948,3.104l-1.22-3.442
			c-0.041-0.11-0.132-0.164-0.272-0.164c-0.122,0-0.238,0.035-0.349,0.108c-0.111,0.071-0.166,0.159-0.166,0.261
			c0,0.026,0.013,0.081,0.04,0.164l1.562,4.221c0.054,0.143,0.169,0.215,0.343,0.215c0.186,0,0.3-0.074,0.345-0.221l0.964-2.98
			l0.978,3.016c0.047,0.123,0.161,0.185,0.344,0.185c0.175,0,0.286-0.061,0.332-0.185l1.573-4.251
			c0.027-0.055,0.041-0.11,0.041-0.164C122.898,230.747,122.84,230.659,122.726,230.588z M125.463,230.439
			c-0.552,0-1.024,0.192-1.417,0.574c-0.394,0.383-0.59,0.837-0.59,1.362v1.076c0,0.594,0.208,1.074,0.625,1.439
			c0.416,0.365,0.954,0.549,1.613,0.549c0.451,0,0.828-0.082,1.135-0.246c0.305-0.164,0.459-0.324,0.459-0.481
			c0-0.089-0.034-0.176-0.101-0.261c-0.068-0.085-0.149-0.128-0.243-0.128c-0.06,0-0.142,0.033-0.243,0.096
			c-0.1,0.065-0.233,0.133-0.398,0.2c-0.165,0.069-0.358,0.102-0.58,0.102c-0.424,0-0.768-0.112-1.034-0.338
			c-0.266-0.225-0.398-0.527-0.398-0.902v-0.308h2.209c0.14,0,0.254-0.006,0.337-0.02c0.084-0.014,0.175-0.048,0.272-0.099
			c0.097-0.053,0.17-0.139,0.217-0.259c0.047-0.121,0.072-0.283,0.072-0.483c0-0.536-0.192-0.983-0.575-1.339
			C126.44,230.617,125.987,230.439,125.463,230.439z M126.512,232.524c-0.06,0.044-0.179,0.066-0.353,0.066h-1.865v-0.369
			c0-0.314,0.113-0.579,0.342-0.794c0.229-0.215,0.501-0.323,0.818-0.323c0.323,0,0.595,0.116,0.816,0.349
			c0.222,0.233,0.334,0.502,0.334,0.809C126.603,232.392,126.572,232.479,126.512,232.524z M130.788,230.439h-0.342
			c-0.289,0-0.552,0.083-0.787,0.249c-0.235,0.165-0.414,0.366-0.534,0.602v-0.488c0-0.09-0.037-0.162-0.111-0.219
			c-0.075-0.055-0.165-0.083-0.273-0.083c-0.121,0-0.219,0.028-0.297,0.083c-0.078,0.054-0.116,0.126-0.116,0.215v4.251
			c0,0.082,0.039,0.154,0.121,0.215c0.08,0.061,0.178,0.093,0.292,0.093c0.115,0,0.214-0.033,0.298-0.098
			c0.084-0.063,0.127-0.134,0.127-0.209v-2.33c0-0.443,0.127-0.804,0.383-1.083c0.255-0.28,0.554-0.42,0.897-0.42h0.342
			c0.087,0,0.164-0.038,0.228-0.114c0.064-0.076,0.096-0.166,0.096-0.27c0-0.104-0.032-0.195-0.096-0.275
			C130.951,230.479,130.875,230.439,130.788,230.439z M133.47,230.439c-0.552,0-1.023,0.192-1.417,0.574
			c-0.393,0.383-0.59,0.837-0.59,1.362v1.076c0,0.594,0.208,1.074,0.625,1.439c0.417,0.365,0.954,0.549,1.614,0.549
			c0.451,0,0.829-0.082,1.134-0.246c0.307-0.164,0.459-0.324,0.459-0.481c0-0.089-0.033-0.176-0.101-0.261
			c-0.067-0.085-0.148-0.128-0.241-0.128c-0.062,0-0.142,0.033-0.243,0.096c-0.101,0.065-0.234,0.133-0.399,0.2
			c-0.165,0.069-0.357,0.102-0.58,0.102c-0.423,0-0.768-0.112-1.033-0.338c-0.266-0.225-0.399-0.527-0.399-0.902v-0.308h2.209
			c0.142,0,0.254-0.006,0.339-0.02c0.084-0.014,0.173-0.048,0.272-0.099c0.097-0.053,0.17-0.139,0.217-0.259
			c0.047-0.121,0.07-0.283,0.07-0.483c0-0.536-0.191-0.983-0.575-1.339C134.449,230.617,133.995,230.439,133.47,230.439z
			 M134.519,232.524c-0.06,0.044-0.177,0.066-0.352,0.066h-1.866v-0.369c0-0.314,0.114-0.579,0.343-0.794
			c0.228-0.215,0.5-0.323,0.816-0.323c0.323,0,0.595,0.116,0.818,0.349c0.221,0.233,0.332,0.502,0.332,0.809
			C134.611,232.392,134.58,232.479,134.519,232.524z M139.704,227.58c-0.121,0-0.222,0.027-0.303,0.083
			c-0.08,0.055-0.121,0.126-0.121,0.215v3.35c-0.121-0.221-0.296-0.409-0.525-0.561c-0.229-0.151-0.494-0.228-0.797-0.228
			c-0.491,0-0.915,0.193-1.271,0.579c-0.357,0.385-0.534,0.848-0.534,1.388v1.044c0,0.519,0.177,0.98,0.534,1.383
			c0.356,0.404,0.77,0.605,1.24,0.605c0.303,0,0.582-0.08,0.837-0.239c0.256-0.159,0.441-0.349,0.555-0.571v0.416
			c0,0.083,0.038,0.155,0.116,0.218c0.078,0.062,0.166,0.094,0.267,0.094c0.115,0,0.212-0.03,0.293-0.093
			c0.08-0.061,0.121-0.133,0.121-0.214v-7.172c0-0.089-0.038-0.161-0.116-0.215C139.924,227.608,139.826,227.58,139.704,227.58z
			 M139.28,233.723c0,0.169-0.117,0.368-0.353,0.595c-0.235,0.228-0.5,0.341-0.797,0.341c-0.303,0-0.568-0.124-0.797-0.371
			c-0.229-0.248-0.342-0.528-0.342-0.84v-1.039c0-0.305,0.113-0.58,0.342-0.824c0.229-0.245,0.497-0.368,0.806-0.368
			c0.303,0,0.569,0.111,0.798,0.331c0.228,0.221,0.342,0.508,0.342,0.86V233.723z M145.503,230.439
			c-0.302,0-0.567,0.076-0.797,0.228c-0.229,0.153-0.403,0.34-0.524,0.561v-3.35c0-0.089-0.041-0.16-0.121-0.215
			c-0.081-0.055-0.182-0.083-0.303-0.083c-0.121,0-0.22,0.027-0.298,0.083c-0.076,0.054-0.116,0.126-0.116,0.215v7.172
			c0,0.081,0.041,0.153,0.122,0.214c0.08,0.063,0.177,0.093,0.292,0.093c0.101,0,0.19-0.031,0.267-0.094
			c0.078-0.063,0.116-0.135,0.116-0.218v-0.416c0.115,0.222,0.299,0.413,0.555,0.571c0.255,0.159,0.534,0.239,0.837,0.239
			c0.47,0,0.884-0.201,1.241-0.605c0.356-0.403,0.534-0.864,0.534-1.383v-1.044c0-0.54-0.178-1.003-0.534-1.388
			C146.418,230.632,145.994,230.439,145.503,230.439z M146.472,233.448c0,0.313-0.115,0.593-0.344,0.84
			c-0.228,0.248-0.494,0.371-0.797,0.371c-0.295,0-0.561-0.114-0.797-0.341c-0.235-0.227-0.353-0.426-0.353-0.595v-1.314
			c0-0.353,0.115-0.639,0.344-0.86c0.228-0.22,0.494-0.331,0.797-0.331c0.309,0,0.579,0.122,0.807,0.368
			c0.229,0.244,0.344,0.519,0.344,0.824V233.448z M151.772,230.562c-0.124-0.083-0.244-0.123-0.358-0.123
			c-0.128,0-0.215,0.058-0.262,0.173l-1.201,3.549l-1.331-3.549c-0.041-0.115-0.132-0.173-0.272-0.173
			c-0.122,0-0.243,0.04-0.363,0.123c-0.122,0.081-0.182,0.176-0.182,0.285c0,0.034,0.014,0.071,0.041,0.112l1.674,4.129
			c-0.101,0.537-0.294,0.977-0.58,1.321c-0.286,0.343-0.58,0.514-0.883,0.514c-0.161,0-0.243,0.129-0.243,0.384
			c0,0.264,0.132,0.395,0.394,0.395c0.175,0,0.341-0.031,0.499-0.093c0.159-0.061,0.294-0.13,0.409-0.205
			c0.115-0.075,0.233-0.196,0.353-0.364c0.121-0.168,0.215-0.301,0.282-0.404c0.068-0.103,0.151-0.27,0.252-0.503
			c0.101-0.233,0.169-0.396,0.202-0.492l0.192-0.513l1.533-4.171c0.02-0.034,0.03-0.068,0.03-0.103
			C151.958,230.742,151.897,230.643,151.772,230.562z M161.29,231.756h-2.961v2.944h2.961V231.756z M165.794,238.298
			c-0.275-0.279-0.412-0.885-0.412-1.82v-10.694c1.215,0.034,2.167,0.433,2.853,1.196c0.653,0.731,1.051,1.849,1.194,3.355
			l0.772-0.132l-0.144-5.114h-11.598l-0.144,5.114l0.772,0.132c0.143-1.506,0.539-2.624,1.189-3.355
			c0.683-0.763,1.63-1.161,2.84-1.196v10.694c0,0.552-0.038,0.965-0.113,1.237c-0.143,0.525-0.491,0.845-1.043,0.96
			c-0.273,0.055-0.697,0.082-1.269,0.082v0.818h7.135v-0.818c-0.4,0-0.681-0.007-0.846-0.021
			C166.423,238.683,166.028,238.536,165.794,238.298z M167.266,234.699h2.961v-2.944h-2.961V234.699z M176.148,234.699h2.962v-2.944
			h-2.962V234.699z M185.031,234.699h2.961v-2.944h-2.961V234.699z"/>
	</g>
</g>
<g>
	<g>
		<path fill="#F0761D" d="M121.356,287.163c-9.687,0-17.54,7.927-17.54,17.705c0,9.778,7.853,17.705,17.54,17.705
			c9.687,0,17.54-7.927,17.54-17.705C138.897,295.09,131.044,287.163,121.356,287.163z M119.849,308.706
			c0.417,0.434,0.923,0.651,1.517,0.651h4.283c0.594,0,1.105,0.222,1.529,0.664c0.426,0.442,0.637,0.972,0.637,1.591
			c0,0.619-0.212,1.15-0.637,1.591c-0.425,0.442-0.933,0.663-1.528,0.663h-4.282c-1.783,0-3.307-0.659-4.573-1.978
			c-1.266-1.319-1.899-2.906-1.899-4.764v-8.999c0-0.636,0.211-1.172,0.633-1.606c0.421-0.433,0.937-0.65,1.544-0.65
			c0.59,0,1.098,0.221,1.518,0.664c0.422,0.441,0.634,0.971,0.634,1.591v2.254h6.418c0.597,0,1.107,0.221,1.534,0.663
			c0.427,0.442,0.639,0.973,0.639,1.592c0,0.618-0.212,1.149-0.638,1.591c-0.425,0.442-0.935,0.663-1.528,0.663h-6.425v2.235
			C119.225,307.743,119.433,308.271,119.849,308.706z M70.591,286.872c-9.831,0-17.828,8.073-17.828,17.995
			c0,9.922,7.998,17.995,17.828,17.995c9.83,0,17.828-8.074,17.828-17.995C88.42,294.945,80.423,286.872,70.591,286.872z
			 M75.025,305.501h-2.9c0,4.678,0,10.435,0,10.435h-4.298c0,0,0-5.702,0-10.435h-2.043v-3.688h2.043v-2.385
			c0-1.708,0.804-4.378,4.338-4.378l3.185,0.012v3.58c0,0-1.935,0-2.312,0c-0.376,0-0.911,0.19-0.911,1.005v2.167h3.275
			L75.025,305.501z"/>
	</g>
</g>
<g>
	<g>
		<path fill="#F0761D" d="M103.163,400.547v-16.8h-16.8v16.8H103.163z M86.363,417.347v16.8h16.8v-16.8H86.363z M103.163,366.947
			v16.8h16.8v50.4h-16.8v16.8h33.6v-84H103.163z M69.563,383.747h16.8v-16.8h-33.6v84h33.6v-16.8h-16.8V383.747z"/>
	</g>
</g>
</svg>
