<?xml version="1.0" encoding="UTF-8" standalone="no"?>
<!-- Created with Inkscape (http://www.inkscape.org/) -->

<svg
   xmlns:dc="http://purl.org/dc/elements/1.1/"
   xmlns:cc="http://creativecommons.org/ns#"
   xmlns:rdf="http://www.w3.org/1999/02/22-rdf-syntax-ns#"
   xmlns:svg="http://www.w3.org/2000/svg"
   xmlns="http://www.w3.org/2000/svg"
   xmlns:sodipodi="http://sodipodi.sourceforge.net/DTD/sodipodi-0.dtd"
   xmlns:inkscape="http://www.inkscape.org/namespaces/inkscape"
   width="241"
   height="47"
   viewBox="0 0 241 47.000001"
   id="svg4178"
   version="1.1"
   inkscape:version="0.91 r13725"
   sodipodi:docname="hachathon_kibu_logo.svg">
  <defs
     id="defs4180" />
  <sodipodi:namedview
     id="base"
     pagecolor="#ffffff"
     bordercolor="#666666"
     borderopacity="1.0"
     inkscape:pageopacity="0.0"
     inkscape:pageshadow="2"
     inkscape:zoom="5.6"
     inkscape:cx="104.7013"
     inkscape:cy="21.552927"
     inkscape:document-units="px"
     inkscape:current-layer="layer1"
     showgrid="false"
     units="px"
     inkscape:showpageshadow="false"
     inkscape:window-width="2560"
     inkscape:window-height="1422"
     inkscape:window-x="0"
     inkscape:window-y="0"
     inkscape:window-maximized="1" />
  <metadata
     id="metadata4183">
    <rdf:RDF>
      <cc:Work
         rdf:about="">
        <dc:format>image/svg+xml</dc:format>
        <dc:type
           rdf:resource="http://purl.org/dc/dcmitype/StillImage" />
        <dc:title></dc:title>
      </cc:Work>
    </rdf:RDF>
  </metadata>
  <g
     inkscape:label="Layer 1"
     inkscape:groupmode="layer"
     id="layer1"
     transform="translate(0,-1005.3622)">
    <path
       d="m 0,1052.3622 46.27,0 0,-47 -46.27,0 0,47 z m 7.952,-38.924 30.366,0 0,30.845 -30.366,0 0,-30.845 z m 58.358,14.823 c 0.355,0 0.687,-0.13 0.992,-0.391 0.305,-0.261 0.458,-0.55 0.458,-0.872 0,-0.14 -0.05,-0.291 -0.147,-0.452 l -7.052,-10.833 6.045,-7.674 c 0.138,-0.16 0.206,-0.34 0.206,-0.543 0,-0.298 -0.156,-0.591 -0.473,-0.871 -0.314,-0.282 -0.631,-0.423 -0.948,-0.423 -0.314,0 -0.564,0.122 -0.737,0.364 l -7.942,10.471 0,-9.961 c 0,-0.281 -0.123,-0.497 -0.37,-0.647 -0.25,-0.151 -0.537,-0.227 -0.875,-0.227 -0.338,0 -0.627,0.076 -0.873,0.227 -0.248,0.151 -0.372,0.367 -0.372,0.647 l 0,20.223 c 0,0.282 0.123,0.501 0.372,0.662 0.246,0.161 0.536,0.24 0.873,0.24 0.338,0 0.625,-0.079 0.875,-0.24 0.247,-0.161 0.37,-0.38 0.37,-0.662 l 0,-6.652 2.19,-2.797 6.489,9.9 c 0.217,0.343 0.525,0.511 0.919,0.511 z m 3.702,-14.324 c -0.335,0 -0.622,0.081 -0.86,0.24 -0.235,0.161 -0.352,0.373 -0.352,0.632 l 0,12.49 c 0,0.24 0.117,0.45 0.352,0.632 0.238,0.18 0.526,0.27 0.86,0.27 0.335,0 0.628,-0.095 0.875,-0.286 0.247,-0.189 0.37,-0.395 0.37,-0.616 l 0,-12.49 c 0,-0.259 -0.117,-0.471 -0.355,-0.632 -0.238,-0.159 -0.535,-0.24 -0.89,-0.24 z m 0,-3.911 c 0.414,0 0.769,-0.146 1.066,-0.437 0.297,-0.289 0.443,-0.626 0.443,-1.008 0,-0.38 -0.147,-0.711 -0.443,-0.993 -0.297,-0.281 -0.652,-0.421 -1.066,-0.421 -0.432,0 -0.798,0.14 -1.095,0.421 -0.297,0.282 -0.446,0.613 -0.446,0.993 0,0.382 0.156,0.719 0.461,1.008 0.308,0.291 0.669,0.437 1.08,0.437 z m 9.777,18.176 c 0.314,0 0.57,-0.115 0.769,-0.344 0.2,-0.229 0.297,-0.499 0.297,-0.814 0,-0.315 -0.094,-0.58 -0.285,-0.798 -0.185,-0.221 -0.446,-0.331 -0.781,-0.331 l -0.919,0 c -0.91,0 -1.545,-0.173 -1.911,-0.522 -0.367,-0.348 -0.546,-0.95 -0.546,-1.806 l 0,-7.693 3.732,0 c 0.214,0 0.396,-0.095 0.532,-0.286 0.138,-0.19 0.208,-0.416 0.208,-0.677 0,-0.261 -0.07,-0.492 -0.208,-0.692 -0.135,-0.2 -0.317,-0.301 -0.532,-0.301 l -3.732,0 0,-5.778 c 0,-0.24 -0.129,-0.444 -0.388,-0.616 -0.255,-0.17 -0.543,-0.255 -0.86,-0.255 -0.294,0 -0.572,0.085 -0.828,0.255 -0.256,0.171 -0.385,0.376 -0.385,0.616 l 0,15.499 c 0,3.03 1.638,4.544 4.918,4.544 l 0.919,0 z m 12.352,-1.895 c 0,-0.282 -0.103,-0.552 -0.311,-0.813 -0.209,-0.261 -0.467,-0.392 -0.784,-0.392 -0.103,0 -0.458,0.176 -1.069,0.528 -0.611,0.351 -1.33,0.526 -2.161,0.526 -2.428,0 -3.644,-1.188 -3.644,-3.561 l 0,-2.991 c 0,-1.138 0.305,-2.014 0.919,-2.633 0.614,-0.617 1.509,-0.926 2.695,-0.926 0.807,0 1.515,0.172 2.117,0.512 0.602,0.341 0.943,0.511 1.022,0.511 0.276,0 0.52,-0.136 0.725,-0.407 0.211,-0.27 0.314,-0.546 0.314,-0.826 0,-0.502 -0.423,-0.972 -1.26,-1.415 -0.84,-0.441 -1.873,-0.662 -3.095,-0.662 -1.938,0 -3.403,0.541 -4.401,1.625 -0.998,1.083 -1.495,2.487 -1.495,4.212 l 0,3.008 c 0,1.747 0.496,3.157 1.495,4.23 0.998,1.074 2.472,1.609 4.43,1.609 1.263,0 2.331,-0.23 3.197,-0.692 0.872,-0.459 1.306,-0.943 1.306,-1.443 z m 8.028,-12.55 c -0.907,0 -1.691,0.224 -2.355,0.671 -0.661,0.447 -1.16,0.996 -1.494,1.646 l 0,-9.84 c 0,-0.259 -0.117,-0.47 -0.355,-0.631 -0.238,-0.161 -0.537,-0.242 -0.89,-0.242 -0.358,0 -0.646,0.081 -0.872,0.242 -0.226,0.161 -0.343,0.37 -0.343,0.631 l 0,21.067 c 0,0.24 0.117,0.452 0.355,0.631 0.241,0.18 0.523,0.27 0.86,0.27 0.335,0 0.625,-0.095 0.875,-0.285 0.247,-0.191 0.37,-0.395 0.37,-0.614 l 0,-7.747 c 0,-1.039 0.326,-1.886 0.978,-2.536 0.652,-0.65 1.401,-0.975 2.249,-0.975 0.91,0 1.7,0.359 2.369,1.081 0.672,0.719 1.007,1.531 1.007,2.43 l 0,7.747 c 0,0.28 0.123,0.5 0.373,0.659 0.247,0.161 0.529,0.24 0.846,0.24 0.335,0 0.626,-0.079 0.872,-0.24 0.247,-0.161 0.37,-0.38 0.37,-0.662 l 0,-7.766 c 0,-1.583 -0.52,-2.942 -1.556,-4.077 -1.034,-1.132 -2.256,-1.7 -3.659,-1.7 z m 13.212,0 c -1.621,0 -3.007,0.562 -4.163,1.685 -1.154,1.124 -1.729,2.457 -1.729,4.002 l 0,3.158 c 0,1.747 0.611,3.157 1.835,4.23 1.224,1.074 2.804,1.609 4.739,1.609 1.324,0 2.434,-0.24 3.336,-0.722 0.896,-0.48 1.348,-0.951 1.348,-1.414 0,-0.261 -0.103,-0.516 -0.297,-0.766 -0.2,-0.252 -0.435,-0.379 -0.714,-0.379 -0.176,0 -0.414,0.097 -0.711,0.288 -0.297,0.191 -0.684,0.386 -1.169,0.586 -0.484,0.201 -1.051,0.301 -1.703,0.301 -1.245,0 -2.258,-0.331 -3.039,-0.993 -0.778,-0.663 -1.168,-1.545 -1.168,-2.65 l 0,-0.902 6.486,0 c 0.417,0 0.746,-0.021 0.995,-0.061 0.247,-0.04 0.511,-0.137 0.799,-0.289 0.285,-0.152 0.499,-0.406 0.637,-0.762 0.138,-0.355 0.206,-0.826 0.206,-1.415 0,-1.576 -0.561,-2.887 -1.688,-3.935 -1.126,-1.046 -2.459,-1.571 -4,-1.571 z m 3.083,6.123 c -0.179,0.131 -0.526,0.197 -1.039,0.197 l -5.479,0 0,-1.084 c 0,-0.923 0.335,-1.7 1.007,-2.332 0.672,-0.632 1.471,-0.947 2.399,-0.947 0.948,0 1.747,0.341 2.402,1.023 0.652,0.682 0.975,1.473 0.975,2.378 -0.001,0.378 -0.089,0.635 -0.265,0.765 z m 16.113,-0.346 c 0,-1.583 -0.517,-2.942 -1.556,-4.077 -1.036,-1.132 -2.255,-1.7 -3.658,-1.7 -0.928,0 -1.741,0.224 -2.443,0.671 -0.702,0.447 -1.21,0.996 -1.524,1.646 l 0,-1.251 c 0,-0.245 -0.114,-0.453 -0.34,-0.626 -0.226,-0.173 -0.49,-0.259 -0.787,-0.259 -0.355,0 -0.646,0.081 -0.872,0.24 -0.229,0.161 -0.341,0.373 -0.341,0.632 l 0,12.49 c 0,0.24 0.118,0.45 0.355,0.632 0.238,0.18 0.52,0.27 0.857,0.27 0.317,0 0.602,-0.095 0.857,-0.285 0.258,-0.191 0.388,-0.395 0.388,-0.614 l 0,-7.747 c 0,-1.039 0.326,-1.886 0.978,-2.536 0.652,-0.65 1.404,-0.975 2.252,-0.975 0.907,0 1.697,0.359 2.37,1.081 0.672,0.719 1.007,1.531 1.007,2.43 l 0,7.747 c 0,0.28 0.123,0.5 0.37,0.659 0.25,0.161 0.528,0.24 0.843,0.24 0.338,0 0.628,-0.079 0.875,-0.24 0.247,-0.161 0.37,-0.38 0.37,-0.662 l 0,-7.766 z m 17.777,-3.248 c 0.787,-0.34 1.406,-0.936 1.85,-1.789 0.443,-0.854 0.664,-1.901 0.664,-3.146 0,-1.944 -0.534,-3.288 -1.612,-4.03 -1.078,-0.743 -2.543,-1.115 -4.401,-1.115 l -5.096,0 c -0.296,0 -0.559,0.085 -0.785,0.242 -0.228,0.162 -0.341,0.382 -0.341,0.665 l 0,20.222 c 0,0.24 0.103,0.444 0.313,0.617 0.208,0.167 0.479,0.256 0.813,0.256 l 5.777,0 c 1.779,0 3.198,-0.502 4.266,-1.508 1.066,-1.003 1.603,-2.587 1.603,-4.754 l 0,-0.543 c 0,-1.443 -0.258,-2.556 -0.775,-3.342 -0.511,-0.78 -1.271,-1.371 -2.276,-1.775 z m -7.231,-7.794 3.611,0 c 2.434,0 3.647,1.074 3.647,3.219 0,1.226 -0.285,2.12 -0.857,2.68 -0.576,0.561 -1.474,0.844 -2.698,0.844 l -3.702,0 0,-6.743 z m 7.792,13.301 c 0,2.748 -1.265,4.124 -3.794,4.124 l -3.999,0 0,-8.578 3.999,0 c 1.245,0 2.187,0.313 2.83,0.933 0.64,0.62 0.963,1.625 0.963,3.008 l 0,0.513 z m 15.136,-7.851 c -0.335,0 -0.625,0.088 -0.872,0.267 -0.247,0.182 -0.37,0.382 -0.37,0.601 l 0,7.836 c 0,0.922 -0.335,1.736 -1.007,2.445 -0.672,0.712 -1.462,1.068 -2.369,1.068 -0.931,0 -1.732,-0.362 -2.402,-1.084 -0.669,-0.72 -1.007,-1.528 -1.007,-2.429 l 0,-7.805 c 0,-0.219 -0.124,-0.426 -0.37,-0.617 -0.247,-0.188 -0.529,-0.282 -0.843,-0.282 -0.338,0 -0.628,0.088 -0.878,0.268 -0.247,0.18 -0.37,0.391 -0.37,0.63 l 0,7.826 c 0,1.545 0.579,2.895 1.735,4.049 1.157,1.151 2.531,1.733 4.134,1.733 1.577,0 2.945,-0.582 4.102,-1.733 1.154,-1.154 1.732,-2.504 1.732,-4.049 l 0,-7.854 c 0,-0.243 -0.115,-0.447 -0.341,-0.617 -0.225,-0.17 -0.516,-0.253 -0.874,-0.253 z m 13.746,-8.58 c -0.355,0 -0.652,0.083 -0.89,0.242 -0.238,0.163 -0.355,0.374 -0.355,0.632 l 0,9.842 c -0.355,-0.649 -0.869,-1.199 -1.541,-1.646 -0.669,-0.447 -1.45,-0.673 -2.34,-0.673 -1.442,0 -2.684,0.568 -3.732,1.701 -1.045,1.135 -1.571,2.49 -1.571,4.077 l 0,3.067 c 0,1.526 0.526,2.88 1.571,4.064 1.048,1.188 2.261,1.78 3.643,1.78 0.887,0 1.709,-0.236 2.457,-0.702 0.755,-0.471 1.295,-1.026 1.63,-1.679 l 0,1.224 c 0,0.24 0.115,0.455 0.344,0.638 0.226,0.183 0.487,0.277 0.784,0.277 0.338,0 0.62,-0.094 0.857,-0.271 0.238,-0.183 0.358,-0.394 0.358,-0.634 l 0,-21.065 c 0,-0.261 -0.117,-0.47 -0.344,-0.632 -0.225,-0.159 -0.512,-0.242 -0.871,-0.242 z m -1.245,18.043 c 0,0.498 -0.346,1.081 -1.036,1.749 -0.69,0.67 -1.471,1.005 -2.34,1.005 -0.89,0 -1.671,-0.367 -2.34,-1.094 -0.672,-0.728 -1.01,-1.549 -1.01,-2.465 l 0,-3.052 c 0,-0.901 0.338,-1.706 1.01,-2.423 0.669,-0.717 1.462,-1.078 2.372,-1.078 0.884,0 1.665,0.324 2.337,0.974 0.672,0.649 1.007,1.488 1.007,2.528 l 0,3.856 z m 9.481,-9.647 c -1.01,0 -1.964,0.177 -2.86,0.528 -0.898,0.35 -1.348,0.757 -1.348,1.22 0,0.298 0.085,0.586 0.253,0.856 0.167,0.27 0.391,0.406 0.664,0.406 0.062,0 0.405,-0.152 1.039,-0.45 0.631,-0.303 1.362,-0.452 2.19,-0.452 1.086,0 1.903,0.374 2.446,1.123 0.543,0.749 0.813,1.625 0.813,2.632 l 0,0.64 -1.418,0 c -2.252,0 -3.973,0.308 -5.156,0.926 -1.189,0.614 -1.779,1.712 -1.779,3.289 0,1.293 0.373,2.282 1.11,2.957 0.743,0.674 1.703,1.016 2.889,1.016 1.638,0 3.13,-0.765 4.475,-2.295 l 0,1.174 c 0,0.252 0.106,0.461 0.326,0.629 0.217,0.167 0.484,0.251 0.798,0.251 0.355,0 0.646,-0.089 0.875,-0.256 0.229,-0.173 0.341,-0.388 0.341,-0.649 l 0,-7.705 c 0,-1.664 -0.461,-3.054 -1.377,-4.168 -0.919,-1.112 -2.349,-1.672 -4.281,-1.672 z m 3.198,9.621 c 0,0.711 -0.388,1.408 -1.169,2.087 -0.781,0.682 -1.586,1.022 -2.414,1.022 -0.693,0 -1.245,-0.194 -1.662,-0.582 -0.414,-0.384 -0.622,-0.953 -0.622,-1.706 0,-0.426 0.091,-0.786 0.267,-1.084 0.179,-0.292 0.411,-0.526 0.696,-0.698 0.288,-0.173 0.655,-0.307 1.098,-0.396 0.443,-0.094 0.875,-0.151 1.289,-0.182 0.414,-0.031 0.907,-0.048 1.48,-0.048 l 1.036,0 0,1.587 z m 11.436,-9.621 c -0.91,0 -1.709,0.225 -2.399,0.673 -0.69,0.447 -1.216,0.997 -1.571,1.646 l 0,-1.251 c 0,-0.264 -0.109,-0.479 -0.326,-0.641 -0.217,-0.165 -0.496,-0.243 -0.831,-0.243 -0.335,0 -0.617,0.078 -0.843,0.24 -0.229,0.16 -0.34,0.37 -0.34,0.631 l 0,19.382 c 0,0.24 0.117,0.45 0.355,0.628 0.238,0.183 0.523,0.273 0.86,0.273 0.335,0 0.625,-0.096 0.872,-0.288 0.25,-0.189 0.37,-0.398 0.37,-0.619 l 0,-8.122 c 0.338,0.674 0.866,1.235 1.589,1.696 0.719,0.455 1.515,0.686 2.381,0.686 1.386,0 2.598,-0.592 3.646,-1.78 1.045,-1.184 1.568,-2.538 1.568,-4.064 l 0,-3.067 c 0,-1.587 -0.517,-2.942 -1.556,-4.077 -1.033,-1.135 -2.296,-1.703 -3.775,-1.703 z m 2.871,8.841 c 0,0.915 -0.338,1.737 -1.019,2.465 -0.681,0.728 -1.468,1.094 -2.355,1.094 -0.872,0 -1.644,-0.336 -2.328,-1.005 -0.681,-0.668 -1.022,-1.251 -1.022,-1.749 l 0,-3.857 c 0,-1.039 0.329,-1.879 0.995,-2.528 0.658,-0.65 1.427,-0.974 2.296,-0.974 0.928,0 1.732,0.361 2.414,1.078 0.681,0.717 1.019,1.522 1.019,2.423 l 0,3.053 z m 10.045,-8.841 c -1.621,0 -3.007,0.562 -4.163,1.685 -1.154,1.126 -1.732,2.46 -1.732,4.004 l 0,3.157 c 0,1.749 0.611,3.157 1.835,4.23 1.227,1.074 2.807,1.614 4.742,1.614 1.324,0 2.431,-0.242 3.333,-0.723 0.898,-0.482 1.347,-0.953 1.347,-1.419 0,-0.257 -0.1,-0.513 -0.297,-0.765 -0.197,-0.251 -0.432,-0.376 -0.711,-0.376 -0.176,0 -0.414,0.094 -0.71,0.285 -0.297,0.191 -0.684,0.385 -1.169,0.589 -0.484,0.198 -1.051,0.298 -1.706,0.298 -1.242,0 -2.255,-0.33 -3.036,-0.992 -0.778,-0.662 -1.172,-1.545 -1.172,-2.648 l 0,-0.904 6.489,0 c 0.414,0 0.746,-0.021 0.992,-0.06 0.246,-0.04 0.514,-0.139 0.801,-0.291 0.285,-0.152 0.496,-0.403 0.637,-0.759 0.135,-0.357 0.208,-0.828 0.208,-1.418 0,-1.576 -0.567,-2.887 -1.691,-3.937 -1.123,-1.046 -2.456,-1.57 -3.997,-1.57 z m 3.082,6.124 c -0.182,0.13 -0.526,0.195 -1.039,0.195 l -5.482,0 0,-1.083 c 0,-0.924 0.338,-1.698 1.01,-2.332 0.672,-0.634 1.471,-0.947 2.399,-0.947 0.948,0 1.75,0.34 2.402,1.02 0.649,0.683 0.975,1.476 0.975,2.378 0,0.382 -0.092,0.639 -0.265,0.769 z m 10.99,0.733 c -0.714,-0.264 -1.43,-0.486 -2.146,-0.67 -0.722,-0.183 -1.33,-0.437 -1.826,-0.759 -0.493,-0.325 -0.74,-0.775 -0.74,-1.34 0,-0.549 0.223,-1.041 0.669,-1.476 0.443,-0.437 1.119,-0.653 2.029,-0.653 0.669,0 1.345,0.146 2.026,0.438 0.684,0.297 1.063,0.443 1.142,0.443 0.276,0 0.508,-0.149 0.699,-0.453 0.185,-0.298 0.279,-0.57 0.279,-0.808 0,-0.412 -0.434,-0.774 -1.304,-1.096 -0.869,-0.319 -1.826,-0.482 -2.871,-0.482 -1.638,0 -2.86,0.413 -3.658,1.241 -0.802,0.825 -1.201,1.806 -1.201,2.936 0,0.936 0.247,1.685 0.74,2.253 0.493,0.568 1.095,0.974 1.806,1.217 0.713,0.245 1.424,0.466 2.134,0.671 0.708,0.203 1.312,0.503 1.806,0.898 0.496,0.395 0.743,0.929 0.743,1.596 0,0.547 -0.223,1.005 -0.667,1.369 -0.446,0.367 -1.163,0.55 -2.149,0.55 -0.751,0 -1.403,-0.121 -1.955,-0.361 -0.552,-0.242 -0.978,-0.488 -1.274,-0.738 -0.296,-0.252 -0.523,-0.377 -0.678,-0.377 -0.238,0 -0.44,0.125 -0.611,0.377 -0.167,0.251 -0.252,0.507 -0.252,0.77 0,0.54 0.476,1.059 1.424,1.551 0.948,0.492 2.091,0.738 3.438,0.738 1.556,0 2.772,-0.362 3.641,-1.074 0.869,-0.717 1.304,-1.693 1.304,-2.927 0,-1.011 -0.247,-1.837 -0.74,-2.478 -0.498,-0.642 -1.097,-1.094 -1.808,-1.356 z m 10.25,5.302 -0.922,0 c -0.907,0 -1.542,-0.177 -1.908,-0.523 -0.364,-0.347 -0.549,-0.947 -0.549,-1.806 l 0,-7.695 3.734,0 c 0.214,0 0.393,-0.094 0.532,-0.283 0.141,-0.191 0.208,-0.417 0.208,-0.677 0,-0.259 -0.068,-0.492 -0.208,-0.693 -0.138,-0.2 -0.317,-0.298 -0.532,-0.298 l -3.734,0 0,-5.78 c 0,-0.24 -0.129,-0.444 -0.385,-0.617 -0.255,-0.167 -0.543,-0.256 -0.857,-0.256 -0.299,0 -0.575,0.089 -0.831,0.256 -0.256,0.173 -0.385,0.377 -0.385,0.617 l 0,15.496 c 0,3.03 1.638,4.548 4.915,4.548 l 0.922,0 c 0.317,0 0.57,-0.115 0.769,-0.346 0.197,-0.229 0.297,-0.502 0.297,-0.816 0,-0.314 -0.097,-0.583 -0.282,-0.799 -0.188,-0.217 -0.446,-0.328 -0.784,-0.328 z m -183.434,14.737 -1.906,0 c -0.101,0 -0.183,0.029 -0.247,0.086 -0.064,0.059 -0.096,0.129 -0.096,0.21 l 0,6.885 c 0,0.096 0.042,0.171 0.127,0.225 0.084,0.055 0.183,0.083 0.297,0.083 0.115,0 0.214,-0.028 0.298,-0.083 0.084,-0.054 0.127,-0.129 0.127,-0.225 l 0,-2.653 1.36,0 c 0.66,0 1.187,-0.18 1.585,-0.539 0.396,-0.358 0.595,-0.919 0.595,-1.685 l 0,-0.093 c 0,-0.764 -0.196,-1.324 -0.585,-1.679 -0.391,-0.355 -0.91,-0.532 -1.555,-0.532 z m 1.292,2.356 c 0,0.485 -0.116,0.848 -0.348,1.091 -0.231,0.243 -0.56,0.364 -0.984,0.364 l -1.36,0 0,-3.033 1.36,0 c 0.423,0 0.752,0.121 0.984,0.364 0.233,0.243 0.348,0.607 0.348,1.092 l 0,0.122 z m 3.297,0.215 c -0.538,0 -1.003,0.197 -1.396,0.589 -0.394,0.393 -0.59,0.852 -0.59,1.378 l 0,1.044 c 0,0.526 0.198,0.989 0.595,1.388 0.396,0.4 0.861,0.6 1.391,0.6 0.532,0 0.997,-0.201 1.397,-0.605 0.4,-0.403 0.6,-0.864 0.6,-1.383 l 0,-1.044 c 0,-0.533 -0.198,-0.994 -0.595,-1.383 -0.396,-0.39 -0.864,-0.584 -1.402,-0.584 z m 1.161,3.009 c 0,0.313 -0.115,0.593 -0.344,0.84 -0.229,0.247 -0.501,0.371 -0.818,0.371 -0.309,0 -0.577,-0.122 -0.806,-0.366 -0.229,-0.245 -0.342,-0.527 -0.342,-0.845 l 0,-1.039 c 0,-0.305 0.112,-0.58 0.337,-0.824 0.225,-0.245 0.496,-0.368 0.811,-0.368 0.317,0 0.589,0.122 0.818,0.368 0.229,0.244 0.344,0.519 0.344,0.824 l 0,1.039 z m 7.742,-2.86 c -0.113,-0.073 -0.231,-0.108 -0.352,-0.108 -0.142,0 -0.229,0.054 -0.262,0.164 l -1.231,3.473 -0.927,-3.135 c -0.048,-0.136 -0.155,-0.205 -0.323,-0.205 -0.155,0 -0.255,0.069 -0.3,0.205 l -0.948,3.104 -1.22,-3.442 c -0.041,-0.11 -0.132,-0.164 -0.272,-0.164 -0.122,0 -0.238,0.035 -0.349,0.108 -0.111,0.071 -0.166,0.159 -0.166,0.261 0,0.026 0.013,0.081 0.04,0.164 l 1.562,4.221 c 0.054,0.143 0.169,0.215 0.343,0.215 0.186,0 0.3,-0.074 0.345,-0.221 l 0.964,-2.98 0.978,3.016 c 0.047,0.123 0.161,0.185 0.344,0.185 0.175,0 0.286,-0.061 0.332,-0.185 l 1.573,-4.251 c 0.027,-0.055 0.041,-0.11 0.041,-0.164 0,-0.102 -0.058,-0.19 -0.172,-0.261 z m 2.737,-0.149 c -0.552,0 -1.024,0.192 -1.417,0.574 -0.394,0.383 -0.59,0.837 -0.59,1.362 l 0,1.076 c 0,0.594 0.208,1.074 0.625,1.439 0.416,0.365 0.954,0.549 1.613,0.549 0.451,0 0.828,-0.082 1.135,-0.246 0.305,-0.164 0.459,-0.324 0.459,-0.481 0,-0.089 -0.034,-0.176 -0.101,-0.261 -0.068,-0.085 -0.149,-0.128 -0.243,-0.128 -0.06,0 -0.142,0.033 -0.243,0.096 -0.1,0.065 -0.233,0.133 -0.398,0.2 -0.165,0.069 -0.358,0.102 -0.58,0.102 -0.424,0 -0.768,-0.112 -1.034,-0.338 -0.266,-0.225 -0.398,-0.527 -0.398,-0.902 l 0,-0.308 2.209,0 c 0.14,0 0.254,-0.01 0.337,-0.02 0.084,-0.014 0.175,-0.048 0.272,-0.099 0.097,-0.053 0.17,-0.139 0.217,-0.259 0.047,-0.121 0.072,-0.283 0.072,-0.483 0,-0.536 -0.192,-0.983 -0.575,-1.339 -0.383,-0.356 -0.836,-0.534 -1.36,-0.534 z m 1.049,2.085 c -0.06,0.044 -0.179,0.066 -0.353,0.066 l -1.865,0 0,-0.369 c 0,-0.314 0.113,-0.579 0.342,-0.794 0.229,-0.215 0.501,-0.323 0.818,-0.323 0.323,0 0.595,0.116 0.816,0.349 0.222,0.233 0.334,0.502 0.334,0.809 -10e-4,0.13 -0.032,0.217 -0.092,0.262 z m 4.276,-2.085 -0.342,0 c -0.289,0 -0.552,0.083 -0.787,0.249 -0.235,0.165 -0.414,0.366 -0.534,0.602 l 0,-0.488 c 0,-0.09 -0.037,-0.162 -0.111,-0.219 -0.075,-0.055 -0.165,-0.083 -0.273,-0.083 -0.121,0 -0.219,0.028 -0.297,0.083 -0.078,0.054 -0.116,0.126 -0.116,0.215 l 0,4.251 c 0,0.082 0.039,0.154 0.121,0.215 0.08,0.061 0.178,0.093 0.292,0.093 0.115,0 0.214,-0.033 0.298,-0.098 0.084,-0.063 0.127,-0.134 0.127,-0.209 l 0,-2.33 c 0,-0.443 0.127,-0.804 0.383,-1.083 0.255,-0.28 0.554,-0.42 0.897,-0.42 l 0.342,0 c 0.087,0 0.164,-0.038 0.228,-0.114 0.064,-0.076 0.096,-0.166 0.096,-0.27 0,-0.104 -0.032,-0.195 -0.096,-0.275 -0.065,-0.079 -0.141,-0.119 -0.228,-0.119 z m 2.682,0 c -0.552,0 -1.023,0.192 -1.417,0.574 -0.393,0.383 -0.59,0.837 -0.59,1.362 l 0,1.076 c 0,0.594 0.208,1.074 0.625,1.439 0.417,0.365 0.954,0.549 1.614,0.549 0.451,0 0.829,-0.082 1.134,-0.246 0.307,-0.164 0.459,-0.324 0.459,-0.481 0,-0.089 -0.033,-0.176 -0.101,-0.261 -0.067,-0.085 -0.148,-0.128 -0.241,-0.128 -0.062,0 -0.142,0.033 -0.243,0.096 -0.101,0.065 -0.234,0.133 -0.399,0.2 -0.165,0.069 -0.357,0.102 -0.58,0.102 -0.423,0 -0.768,-0.112 -1.033,-0.338 -0.266,-0.225 -0.399,-0.527 -0.399,-0.902 l 0,-0.308 2.209,0 c 0.142,0 0.254,-0.01 0.339,-0.02 0.084,-0.014 0.173,-0.048 0.272,-0.099 0.097,-0.053 0.17,-0.139 0.217,-0.259 0.047,-0.121 0.07,-0.283 0.07,-0.483 0,-0.536 -0.191,-0.983 -0.575,-1.339 -0.382,-0.356 -0.836,-0.534 -1.361,-0.534 z m 1.049,2.085 c -0.06,0.044 -0.177,0.066 -0.352,0.066 l -1.866,0 0,-0.369 c 0,-0.314 0.114,-0.579 0.343,-0.794 0.228,-0.215 0.5,-0.323 0.816,-0.323 0.323,0 0.595,0.116 0.818,0.349 0.221,0.233 0.332,0.502 0.332,0.809 0.001,0.13 -0.03,0.217 -0.091,0.262 z m 5.185,-4.944 c -0.121,0 -0.222,0.027 -0.303,0.083 -0.08,0.055 -0.121,0.126 -0.121,0.215 l 0,3.35 c -0.121,-0.221 -0.296,-0.409 -0.525,-0.561 -0.229,-0.151 -0.494,-0.228 -0.797,-0.228 -0.491,0 -0.915,0.193 -1.271,0.579 -0.357,0.385 -0.534,0.848 -0.534,1.388 l 0,1.044 c 0,0.519 0.177,0.98 0.534,1.383 0.356,0.404 0.77,0.605 1.24,0.605 0.303,0 0.582,-0.08 0.837,-0.239 0.256,-0.159 0.441,-0.349 0.555,-0.571 l 0,0.416 c 0,0.083 0.038,0.155 0.116,0.218 0.078,0.062 0.166,0.094 0.267,0.094 0.115,0 0.212,-0.03 0.293,-0.093 0.08,-0.061 0.121,-0.133 0.121,-0.214 l 0,-7.172 c 0,-0.089 -0.038,-0.161 -0.116,-0.215 -0.076,-0.054 -0.174,-0.082 -0.296,-0.082 z m -0.424,6.143 c 0,0.169 -0.117,0.368 -0.353,0.595 -0.235,0.228 -0.5,0.341 -0.797,0.341 -0.303,0 -0.568,-0.124 -0.797,-0.371 -0.229,-0.248 -0.342,-0.528 -0.342,-0.84 l 0,-1.039 c 0,-0.305 0.113,-0.58 0.342,-0.824 0.229,-0.245 0.497,-0.368 0.806,-0.368 0.303,0 0.569,0.111 0.798,0.331 0.228,0.221 0.342,0.508 0.342,0.86 l 0,1.315 z m 6.223,-3.284 c -0.302,0 -0.567,0.076 -0.797,0.228 -0.229,0.153 -0.403,0.34 -0.524,0.561 l 0,-3.35 c 0,-0.089 -0.041,-0.16 -0.121,-0.215 -0.081,-0.055 -0.182,-0.083 -0.303,-0.083 -0.121,0 -0.22,0.027 -0.298,0.083 -0.076,0.054 -0.116,0.126 -0.116,0.215 l 0,7.172 c 0,0.081 0.041,0.153 0.122,0.214 0.08,0.063 0.177,0.093 0.292,0.093 0.101,0 0.19,-0.031 0.267,-0.094 0.078,-0.063 0.116,-0.135 0.116,-0.218 l 0,-0.416 c 0.115,0.222 0.299,0.413 0.555,0.571 0.255,0.159 0.534,0.239 0.837,0.239 0.47,0 0.884,-0.201 1.241,-0.605 0.356,-0.403 0.534,-0.864 0.534,-1.383 l 0,-1.044 c 0,-0.54 -0.178,-1.003 -0.534,-1.388 -0.356,-0.387 -0.78,-0.58 -1.271,-0.58 z m 0.969,3.009 c 0,0.313 -0.115,0.593 -0.344,0.84 -0.228,0.248 -0.494,0.371 -0.797,0.371 -0.295,0 -0.561,-0.114 -0.797,-0.341 -0.235,-0.227 -0.353,-0.426 -0.353,-0.595 l 0,-1.314 c 0,-0.353 0.115,-0.639 0.344,-0.86 0.228,-0.22 0.494,-0.331 0.797,-0.331 0.309,0 0.579,0.122 0.807,0.368 0.229,0.244 0.344,0.519 0.344,0.824 l 0,1.038 z m 5.3,-2.886 c -0.124,-0.083 -0.244,-0.123 -0.358,-0.123 -0.128,0 -0.215,0.058 -0.262,0.173 l -1.201,3.549 -1.331,-3.549 c -0.041,-0.115 -0.132,-0.173 -0.272,-0.173 -0.122,0 -0.243,0.04 -0.363,0.123 -0.122,0.081 -0.182,0.176 -0.182,0.285 0,0.034 0.014,0.071 0.041,0.112 l 1.674,4.129 c -0.101,0.537 -0.294,0.977 -0.58,1.321 -0.286,0.343 -0.58,0.514 -0.883,0.514 -0.161,0 -0.243,0.129 -0.243,0.384 0,0.264 0.132,0.395 0.394,0.395 0.175,0 0.341,-0.031 0.499,-0.093 0.159,-0.061 0.294,-0.13 0.409,-0.205 0.115,-0.075 0.233,-0.196 0.353,-0.364 0.121,-0.168 0.215,-0.301 0.282,-0.404 0.068,-0.103 0.151,-0.27 0.252,-0.503 0.101,-0.233 0.169,-0.396 0.202,-0.492 l 0.192,-0.513 1.533,-4.171 c 0.02,-0.034 0.03,-0.068 0.03,-0.103 0,-0.112 -0.061,-0.211 -0.186,-0.292 z m 9.518,1.194 -2.961,0 0,2.944 2.961,0 0,-2.944 z m 4.504,6.542 c -0.275,-0.279 -0.412,-0.885 -0.412,-1.82 l 0,-10.694 c 1.215,0.034 2.167,0.433 2.853,1.196 0.653,0.731 1.051,1.849 1.194,3.355 l 0.772,-0.132 -0.144,-5.114 -11.598,0 -0.144,5.114 0.772,0.132 c 0.143,-1.506 0.539,-2.624 1.189,-3.355 0.683,-0.763 1.63,-1.161 2.84,-1.196 l 0,10.694 c 0,0.552 -0.038,0.965 -0.113,1.237 -0.143,0.525 -0.491,0.845 -1.043,0.96 -0.273,0.055 -0.697,0.082 -1.269,0.082 l 0,0.818 7.135,0 0,-0.818 c -0.4,0 -0.681,-0.01 -0.846,-0.021 -0.557,-0.053 -0.952,-0.2 -1.186,-0.438 z m 1.472,-3.599 2.961,0 0,-2.944 -2.961,0 0,2.944 z m 8.882,0 2.962,0 0,-2.944 -2.962,0 0,2.944 z m 8.883,0 2.961,0 0,-2.944 -2.961,0 0,2.944 z"
       id="path17"
       inkscape:connector-curvature="0"
       style="fill:#fef5df;fill-opacity:1" />
  </g>
</svg>
