<?xml version="1.0" encoding="UTF-8" standalone="no"?>
<!-- Generator: Adobe Illustrator 17.0.0, SVG Export Plug-In . SVG Version: 6.00 Build 0)  -->

<svg
   xmlns:dc="http://purl.org/dc/elements/1.1/"
   xmlns:cc="http://creativecommons.org/ns#"
   xmlns:rdf="http://www.w3.org/1999/02/22-rdf-syntax-ns#"
   xmlns:svg="http://www.w3.org/2000/svg"
   xmlns="http://www.w3.org/2000/svg"
   xmlns:sodipodi="http://sodipodi.sourceforge.net/DTD/sodipodi-0.dtd"
   xmlns:inkscape="http://www.inkscape.org/namespaces/inkscape"
   version="1.1"
   id="Layer_1"
   x="0px"
   y="0px"
   width="77"
   height="36"
   viewBox="0 0 77 36"
   enable-background="new 0 0 77 14"
   xml:space="preserve"
   inkscape:version="0.91 r13725"
   sodipodi:docname="hubraum_logo.svg"><metadata
     id="metadata23"><rdf:RDF><cc:Work
         rdf:about=""><dc:format>image/svg+xml</dc:format><dc:type
           rdf:resource="http://purl.org/dc/dcmitype/StillImage" /><dc:title></dc:title></cc:Work></rdf:RDF></metadata><defs
     id="defs21" /><sodipodi:namedview
     pagecolor="#ffffff"
     bordercolor="#666666"
     borderopacity="1"
     objecttolerance="10"
     gridtolerance="10"
     guidetolerance="10"
     inkscape:pageopacity="0"
     inkscape:pageshadow="2"
     inkscape:window-width="2560"
     inkscape:window-height="1422"
     id="namedview19"
     showgrid="false"
     inkscape:zoom="3.7922078"
     inkscape:cx="-60.518836"
     inkscape:cy="7"
     inkscape:window-x="0"
     inkscape:window-y="0"
     inkscape:window-maximized="1"
     inkscape:current-layer="Layer_1" /><path
     d="m 2.853,11.1255 0,5.08 0.057,0 c 0.34,-0.566 0.775,-0.979 1.304,-1.237 0.529,-0.258 1.045,-0.387 1.549,-0.387 0.718,0 1.307,0.098 1.767,0.293 0.46,0.195 0.822,0.466 1.086,0.812 0.265,0.346 0.45,0.768 0.557,1.265 0.107,0.498 0.161,1.048 0.161,1.652 l 0,6.005 -2.683,0 0,-5.513 c 0,-0.806 -0.126,-1.407 -0.378,-1.804 -0.252,-0.397 -0.699,-0.595 -1.341,-0.595 -0.731,0 -1.26,0.217 -1.587,0.651 -0.328,0.435 -0.492,1.15 -0.492,2.144 l 0,5.118 -2.682,0 0,-13.484 2.682,0 z"
     id="path3"
     inkscape:connector-curvature="0"
     style="fill:#fef5df" /><path
     d="m 17.405,24.6095 0,-1.359 -0.057,0 c -0.34,0.566 -0.781,0.976 -1.322,1.228 -0.542,0.251 -1.096,0.377 -1.663,0.377 -0.718,0 -1.307,-0.094 -1.766,-0.283 -0.46,-0.189 -0.822,-0.456 -1.086,-0.802 -0.265,-0.346 -0.451,-0.768 -0.557,-1.266 -0.107,-0.497 -0.161,-1.048 -0.161,-1.652 l 0,-6.007 2.683,0 0,5.515 c 0,0.806 0.126,1.407 0.378,1.803 0.252,0.397 0.699,0.595 1.341,0.595 0.73,0 1.259,-0.217 1.587,-0.651 0.328,-0.434 0.491,-1.149 0.491,-2.143 l 0,-5.119 2.683,0 0,9.764 -2.551,0 z"
     id="path5"
     inkscape:connector-curvature="0"
     style="fill:#fef5df" /><path
     d="m 28.658,18.5475 c -0.088,-0.378 -0.227,-0.712 -0.416,-1.001 -0.189,-0.289 -0.425,-0.519 -0.708,-0.689 -0.283,-0.17 -0.627,-0.255 -1.03,-0.255 -0.391,0 -0.73,0.085 -1.02,0.255 -0.29,0.17 -0.529,0.4 -0.718,0.689 -0.189,0.29 -0.328,0.624 -0.415,1.001 -0.088,0.378 -0.132,0.774 -0.132,1.19 0,0.403 0.044,0.793 0.132,1.171 0.088,0.377 0.227,0.711 0.415,1.001 0.189,0.29 0.428,0.52 0.718,0.689 0.29,0.17 0.63,0.255 1.02,0.255 0.403,0 0.746,-0.085 1.03,-0.255 0.284,-0.169 0.52,-0.399 0.708,-0.689 0.189,-0.29 0.327,-0.623 0.416,-1.001 0.088,-0.378 0.132,-0.768 0.132,-1.171 0,-0.416 -0.044,-0.812 -0.132,-1.19 m -4.345,-7.422 0,4.91 0.038,0 c 0.327,-0.503 0.771,-0.872 1.332,-1.105 0.56,-0.233 1.143,-0.349 1.748,-0.349 0.491,0 0.976,0.101 1.455,0.302 0.479,0.202 0.91,0.51 1.294,0.925 0.384,0.416 0.696,0.948 0.935,1.596 0.239,0.648 0.359,1.42 0.359,2.314 0,0.894 -0.12,1.665 -0.359,2.314 -0.24,0.649 -0.551,1.18 -0.935,1.596 -0.384,0.416 -0.816,0.725 -1.294,0.925 -0.479,0.201 -0.964,0.302 -1.455,0.302 -0.718,0 -1.36,-0.113 -1.927,-0.34 -0.567,-0.226 -0.995,-0.611 -1.285,-1.152 l -0.039,0 0,1.246 -2.55,0 0,-13.484 2.683,0 z"
     id="path7"
     inkscape:connector-curvature="0"
     style="fill:#fef5df" /><path
     d="m 35.885,24.6095 -3.018,0 0,-2.959 3.018,0 0,2.959 z m -3.018,-9.761 3.017,0 0,2.959 -3.017,0 0,-2.959 z"
     id="path9"
     inkscape:connector-curvature="0"
     style="fill:#fef5df" /><path
     d="m 39.187,14.8645 0,2.285 0.038,0 c 0.302,-0.793 0.771,-1.403 1.408,-1.832 0.635,-0.428 1.394,-0.623 2.276,-0.585 l 0,1.19 c -0.542,-0.025 -1.033,0.047 -1.474,0.217 -0.441,0.17 -0.822,0.413 -1.143,0.727 -0.321,0.315 -0.57,0.689 -0.746,1.124 -0.177,0.434 -0.265,0.91 -0.265,1.426 l 0,5.193 -1.19,0 0,-9.745 1.096,0 z"
     id="path11"
     inkscape:connector-curvature="0"
     style="fill:#fef5df" /><path
     d="m 49.861,19.2835 c -0.075,0.139 -0.221,0.239 -0.434,0.303 -0.214,0.063 -0.403,0.107 -0.567,0.132 -0.504,0.088 -1.024,0.167 -1.559,0.236 -0.536,0.069 -1.023,0.173 -1.464,0.311 -0.441,0.139 -0.803,0.337 -1.087,0.595 -0.283,0.258 -0.425,0.627 -0.425,1.105 0,0.303 0.06,0.57 0.18,0.803 0.119,0.233 0.28,0.435 0.481,0.605 0.201,0.17 0.434,0.299 0.699,0.387 0.265,0.088 0.535,0.132 0.813,0.132 0.453,0 0.888,-0.069 1.303,-0.207 0.416,-0.139 0.778,-0.34 1.086,-0.605 0.308,-0.264 0.554,-0.585 0.737,-0.963 0.183,-0.378 0.274,-0.806 0.274,-1.285 l 0,-1.549 -0.037,0 z m -5.951,-2.908 c 0.201,-0.416 0.475,-0.755 0.822,-1.02 0.346,-0.264 0.752,-0.459 1.219,-0.585 0.466,-0.126 0.982,-0.189 1.549,-0.189 0.428,0 0.856,0.041 1.285,0.123 0.428,0.083 0.812,0.236 1.152,0.463 0.34,0.227 0.617,0.544 0.831,0.953 0.214,0.409 0.321,0.942 0.321,1.596 l 0,5.175 c 0,0.479 0.233,0.717 0.699,0.717 0.138,0 0.264,-0.025 0.377,-0.075 l 0,1.001 c -0.138,0.025 -0.261,0.045 -0.368,0.057 -0.107,0.013 -0.243,0.019 -0.406,0.019 -0.302,0 -0.545,-0.041 -0.728,-0.123 -0.183,-0.082 -0.324,-0.198 -0.425,-0.349 -0.101,-0.151 -0.167,-0.331 -0.198,-0.538 -0.032,-0.208 -0.047,-0.437 -0.047,-0.689 l -0.038,0 c -0.214,0.314 -0.431,0.595 -0.652,0.84 -0.221,0.246 -0.466,0.45 -0.737,0.613 -0.271,0.165 -0.58,0.29 -0.926,0.378 -0.346,0.088 -0.759,0.132 -1.237,0.132 -0.453,0 -0.879,-0.054 -1.276,-0.16 -0.396,-0.107 -0.743,-0.277 -1.039,-0.51 -0.296,-0.233 -0.529,-0.529 -0.699,-0.888 -0.17,-0.359 -0.255,-0.784 -0.255,-1.275 0,-0.68 0.151,-1.212 0.454,-1.596 0.302,-0.384 0.702,-0.677 1.199,-0.878 0.498,-0.201 1.058,-0.343 1.681,-0.425 0.624,-0.082 1.256,-0.16 1.899,-0.236 0.251,-0.025 0.472,-0.056 0.661,-0.094 0.189,-0.038 0.346,-0.104 0.472,-0.198 0.126,-0.094 0.223,-0.224 0.293,-0.387 0.069,-0.164 0.104,-0.378 0.104,-0.642 0,-0.403 -0.066,-0.733 -0.199,-0.992 -0.132,-0.258 -0.314,-0.463 -0.548,-0.614 -0.233,-0.151 -0.504,-0.255 -0.813,-0.312 -0.309,-0.057 -0.639,-0.085 -0.992,-0.085 -0.755,0 -1.373,0.18 -1.851,0.538 -0.479,0.359 -0.731,0.935 -0.756,1.728 l -1.19,0 c 0.041,-0.567 0.16,-1.058 0.362,-1.473"
     id="path13"
     inkscape:connector-curvature="0"
     style="fill:#fef5df" /><path
     d="m 59.893,24.6095 0,-1.756 -0.038,0 c -0.315,0.655 -0.771,1.155 -1.37,1.501 -0.598,0.346 -1.263,0.52 -1.993,0.52 -0.617,0 -1.143,-0.085 -1.578,-0.255 -0.434,-0.17 -0.787,-0.412 -1.058,-0.727 -0.271,-0.315 -0.469,-0.698 -0.595,-1.152 -0.126,-0.454 -0.189,-0.969 -0.189,-1.549 l 0,-6.327 1.19,0 0,6.346 c 0.025,0.881 0.23,1.548 0.614,2.002 0.384,0.453 1.049,0.68 1.993,0.68 0.516,0 0.957,-0.11 1.322,-0.33 0.365,-0.22 0.667,-0.513 0.907,-0.878 0.239,-0.365 0.416,-0.784 0.529,-1.256 0.113,-0.472 0.17,-0.953 0.17,-1.444 l 0,-5.12 1.19,0 0,9.745 -1.094,0 z"
     id="path15"
     inkscape:connector-curvature="0"
     style="fill:#fef5df" /><path
     d="m 64.166,14.8645 0,1.643 0.057,0 c 0.315,-0.605 0.728,-1.076 1.237,-1.417 0.51,-0.34 1.162,-0.51 1.956,-0.51 0.643,0 1.225,0.157 1.748,0.472 0.523,0.315 0.872,0.793 1.048,1.435 0.29,-0.642 0.718,-1.12 1.285,-1.435 0.567,-0.315 1.171,-0.472 1.814,-0.472 2.154,0 3.231,1.14 3.231,3.419 l 0,6.61 -1.19,0 0,-6.554 c 0,-0.806 -0.17,-1.419 -0.51,-1.841 -0.34,-0.422 -0.938,-0.633 -1.795,-0.633 -0.516,0 -0.944,0.098 -1.285,0.293 -0.34,0.195 -0.611,0.456 -0.812,0.784 -0.201,0.328 -0.343,0.702 -0.425,1.124 -0.082,0.422 -0.123,0.86 -0.123,1.313 l 0,5.514 -1.19,0 0,-6.61 c 0,-0.328 -0.035,-0.639 -0.104,-0.935 -0.069,-0.296 -0.183,-0.554 -0.34,-0.775 -0.158,-0.22 -0.369,-0.393 -0.633,-0.519 -0.265,-0.126 -0.586,-0.189 -0.963,-0.189 -0.504,0 -0.942,0.091 -1.313,0.274 -0.372,0.182 -0.674,0.434 -0.907,0.755 -0.233,0.321 -0.406,0.699 -0.52,1.134 -0.113,0.434 -0.17,0.91 -0.17,1.426 l 0,5.439 -1.19,0 0,-9.745 1.094,0 z"
     id="path17"
     inkscape:connector-curvature="0"
     style="fill:#fef5df" /></svg>