<?xml version="1.0" encoding="UTF-8" standalone="no"?>
<!-- Generator: Adobe Illustrator 17.0.0, SVG Export Plug-In . SVG Version: 6.00 Build 0)  -->

<svg
   xmlns:dc="http://purl.org/dc/elements/1.1/"
   xmlns:cc="http://creativecommons.org/ns#"
   xmlns:rdf="http://www.w3.org/1999/02/22-rdf-syntax-ns#"
   xmlns:svg="http://www.w3.org/2000/svg"
   xmlns="http://www.w3.org/2000/svg"
   xmlns:sodipodi="http://sodipodi.sourceforge.net/DTD/sodipodi-0.dtd"
   xmlns:inkscape="http://www.inkscape.org/namespaces/inkscape"
   version="1.1"
   id="Layer_1"
   x="0px"
   y="0px"
   width="46.544998"
   height="36"
   viewBox="0 0 46.545 36"
   enable-background="new 0 0 46.545 23"
   xml:space="preserve"
   inkscape:version="0.91 r13725"
   sodipodi:docname="telekom_logo.svg"><metadata
     id="metadata9"><rdf:RDF><cc:Work
         rdf:about=""><dc:format>image/svg+xml</dc:format><dc:type
           rdf:resource="http://purl.org/dc/dcmitype/StillImage" /><dc:title></dc:title></cc:Work></rdf:RDF></metadata><defs
     id="defs7" /><sodipodi:namedview
     pagecolor="#ffffff"
     bordercolor="#666666"
     borderopacity="1"
     objecttolerance="10"
     gridtolerance="10"
     guidetolerance="10"
     inkscape:pageopacity="0"
     inkscape:pageshadow="2"
     inkscape:window-width="2560"
     inkscape:window-height="1422"
     id="namedview5"
     showgrid="false"
     inkscape:zoom="6.273499"
     inkscape:cx="23.272499"
     inkscape:cy="11.5"
     inkscape:window-x="0"
     inkscape:window-y="0"
     inkscape:window-maximized="1"
     inkscape:current-layer="Layer_1" /><path
     d="m 41.901,17.085 4.644,0 0,4.673 -4.644,0 0,-4.673 z m -13.931,0 4.643,0 0,4.673 -4.643,0 0,-4.673 z m -13.931,0 4.644,0 0,4.673 -4.644,0 0,-4.673 z m -2.956,7.498 c 0,1.482 0.215,2.445 0.647,2.888 0.365,0.378 0.986,0.611 1.858,0.697 0.258,0.022 0.702,0.032 1.327,0.032 l 0,1.3 -11.19,0 0,-1.299 c 0.899,0 1.561,-0.043 1.989,-0.13 0.867,-0.184 1.413,-0.692 1.638,-1.526 0.117,-0.432 0.177,-1.087 0.177,-1.963 l 0,-16.978 C 5.631,7.658 4.146,8.291 3.074,9.503 2.056,10.663 1.435,12.438 1.209,14.83 L 0,14.62 0.225,6.5 l 18.191,0 0.226,8.12 -1.212,0.21 C 17.205,12.438 16.579,10.663 15.556,9.503 14.479,8.291 12.987,7.658 11.082,7.604 l 0,16.979 10e-4,0 z m -11.061,-7.498 4.644,0 0,4.673 -4.644,0 0,-4.673 z"
     id="path3"
     inkscape:connector-curvature="0"
     style="fill:#fef5df" /></svg>